<?xml version="1.0" encoding="utf-8" standalone="no"?>
<!DOCTYPE svg PUBLIC "-//W3C//DTD SVG 1.1//EN"
  "http://www.w3.org/Graphics/SVG/1.1/DTD/svg11.dtd">
<!-- Created with matplotlib (https://matplotlib.org/) -->
<svg height="720pt" version="1.1" viewBox="0 0 1080 720" width="1080pt" xmlns="http://www.w3.org/2000/svg" xmlns:xlink="http://www.w3.org/1999/xlink">
 <defs>
  <style type="text/css">
*{stroke-linecap:butt;stroke-linejoin:round;}
  </style>
 </defs>
 <g id="figure_1">
  <g id="patch_1">
   <path d="M 0 720 
L 1080 720 
L 1080 0 
L 0 0 
z
" style="fill:#f0f0f0;"/>
  </g>
  <g id="axes_1">
   <g id="patch_2">
    <path d="M 86.4 203.04 
L 1026 203.04 
L 1026 86.4 
L 86.4 86.4 
z
" style="fill:#f0f0f0;"/>
   </g>
   <g id="matplotlib.axis_1">
    <g id="xtick_1">
     <g id="line2d_1">
      <path clip-path="url(#p1ba3915495)" d="M 86.4 203.04 
L 86.4 86.4 
" style="fill:none;stroke:#cbcbcb;"/>
     </g>
     <g id="line2d_2"/>
     <g id="text_1">
      <!-- 0.0 -->
      <defs>
       <path d="M 31.78125 66.40625 
Q 24.171875 66.40625 20.328125 58.90625 
Q 16.5 51.421875 16.5 36.375 
Q 16.5 21.390625 20.328125 13.890625 
Q 24.171875 6.390625 31.78125 6.390625 
Q 39.453125 6.390625 43.28125 13.890625 
Q 47.125 21.390625 47.125 36.375 
Q 47.125 51.421875 43.28125 58.90625 
Q 39.453125 66.40625 31.78125 66.40625 
z
M 31.78125 74.21875 
Q 44.046875 74.21875 50.515625 64.515625 
Q 56.984375 54.828125 56.984375 36.375 
Q 56.984375 17.96875 50.515625 8.265625 
Q 44.046875 -1.421875 31.78125 -1.421875 
Q 19.53125 -1.421875 13.0625 8.265625 
Q 6.59375 17.96875 6.59375 36.375 
Q 6.59375 54.828125 13.0625 64.515625 
Q 19.53125 74.21875 31.78125 74.21875 
z
" id="DejaVuSans-48"/>
       <path d="M 10.6875 12.40625 
L 21 12.40625 
L 21 0 
L 10.6875 0 
z
" id="DejaVuSans-46"/>
      </defs>
      <g transform="translate(73.041375 219.305375)scale(0.168 -0.168)">
       <use xlink:href="#DejaVuSans-48"/>
       <use x="63.623047" xlink:href="#DejaVuSans-46"/>
       <use x="95.410156" xlink:href="#DejaVuSans-48"/>
      </g>
     </g>
    </g>
    <g id="xtick_2">
     <g id="line2d_3">
      <path clip-path="url(#p1ba3915495)" d="M 274.32 203.04 
L 274.32 86.4 
" style="fill:none;stroke:#cbcbcb;"/>
     </g>
     <g id="line2d_4"/>
     <g id="text_2">
      <!-- 0.2 -->
      <defs>
       <path d="M 19.1875 8.296875 
L 53.609375 8.296875 
L 53.609375 0 
L 7.328125 0 
L 7.328125 8.296875 
Q 12.9375 14.109375 22.625 23.890625 
Q 32.328125 33.6875 34.8125 36.53125 
Q 39.546875 41.84375 41.421875 45.53125 
Q 43.3125 49.21875 43.3125 52.78125 
Q 43.3125 58.59375 39.234375 62.25 
Q 35.15625 65.921875 28.609375 65.921875 
Q 23.96875 65.921875 18.8125 64.3125 
Q 13.671875 62.703125 7.8125 59.421875 
L 7.8125 69.390625 
Q 13.765625 71.78125 18.9375 73 
Q 24.125 74.21875 28.421875 74.21875 
Q 39.75 74.21875 46.484375 68.546875 
Q 53.21875 62.890625 53.21875 53.421875 
Q 53.21875 48.921875 51.53125 44.890625 
Q 49.859375 40.875 45.40625 35.40625 
Q 44.1875 33.984375 37.640625 27.21875 
Q 31.109375 20.453125 19.1875 8.296875 
z
" id="DejaVuSans-50"/>
      </defs>
      <g transform="translate(260.961375 219.305375)scale(0.168 -0.168)">
       <use xlink:href="#DejaVuSans-48"/>
       <use x="63.623047" xlink:href="#DejaVuSans-46"/>
       <use x="95.410156" xlink:href="#DejaVuSans-50"/>
      </g>
     </g>
    </g>
    <g id="xtick_3">
     <g id="line2d_5">
      <path clip-path="url(#p1ba3915495)" d="M 462.24 203.04 
L 462.24 86.4 
" style="fill:none;stroke:#cbcbcb;"/>
     </g>
     <g id="line2d_6"/>
     <g id="text_3">
      <!-- 0.4 -->
      <defs>
       <path d="M 37.796875 64.3125 
L 12.890625 25.390625 
L 37.796875 25.390625 
z
M 35.203125 72.90625 
L 47.609375 72.90625 
L 47.609375 25.390625 
L 58.015625 25.390625 
L 58.015625 17.1875 
L 47.609375 17.1875 
L 47.609375 0 
L 37.796875 0 
L 37.796875 17.1875 
L 4.890625 17.1875 
L 4.890625 26.703125 
z
" id="DejaVuSans-52"/>
      </defs>
      <g transform="translate(448.881375 219.305375)scale(0.168 -0.168)">
       <use xlink:href="#DejaVuSans-48"/>
       <use x="63.623047" xlink:href="#DejaVuSans-46"/>
       <use x="95.410156" xlink:href="#DejaVuSans-52"/>
      </g>
     </g>
    </g>
    <g id="xtick_4">
     <g id="line2d_7">
      <path clip-path="url(#p1ba3915495)" d="M 650.16 203.04 
L 650.16 86.4 
" style="fill:none;stroke:#cbcbcb;"/>
     </g>
     <g id="line2d_8"/>
     <g id="text_4">
      <!-- 0.6 -->
      <defs>
       <path d="M 33.015625 40.375 
Q 26.375 40.375 22.484375 35.828125 
Q 18.609375 31.296875 18.609375 23.390625 
Q 18.609375 15.53125 22.484375 10.953125 
Q 26.375 6.390625 33.015625 6.390625 
Q 39.65625 6.390625 43.53125 10.953125 
Q 47.40625 15.53125 47.40625 23.390625 
Q 47.40625 31.296875 43.53125 35.828125 
Q 39.65625 40.375 33.015625 40.375 
z
M 52.59375 71.296875 
L 52.59375 62.3125 
Q 48.875 64.0625 45.09375 64.984375 
Q 41.3125 65.921875 37.59375 65.921875 
Q 27.828125 65.921875 22.671875 59.328125 
Q 17.53125 52.734375 16.796875 39.40625 
Q 19.671875 43.65625 24.015625 45.921875 
Q 28.375 48.1875 33.59375 48.1875 
Q 44.578125 48.1875 50.953125 41.515625 
Q 57.328125 34.859375 57.328125 23.390625 
Q 57.328125 12.15625 50.6875 5.359375 
Q 44.046875 -1.421875 33.015625 -1.421875 
Q 20.359375 -1.421875 13.671875 8.265625 
Q 6.984375 17.96875 6.984375 36.375 
Q 6.984375 53.65625 15.1875 63.9375 
Q 23.390625 74.21875 37.203125 74.21875 
Q 40.921875 74.21875 44.703125 73.484375 
Q 48.484375 72.75 52.59375 71.296875 
z
" id="DejaVuSans-54"/>
      </defs>
      <g transform="translate(636.801375 219.305375)scale(0.168 -0.168)">
       <use xlink:href="#DejaVuSans-48"/>
       <use x="63.623047" xlink:href="#DejaVuSans-46"/>
       <use x="95.410156" xlink:href="#DejaVuSans-54"/>
      </g>
     </g>
    </g>
    <g id="xtick_5">
     <g id="line2d_9">
      <path clip-path="url(#p1ba3915495)" d="M 838.08 203.04 
L 838.08 86.4 
" style="fill:none;stroke:#cbcbcb;"/>
     </g>
     <g id="line2d_10"/>
     <g id="text_5">
      <!-- 0.8 -->
      <defs>
       <path d="M 31.78125 34.625 
Q 24.75 34.625 20.71875 30.859375 
Q 16.703125 27.09375 16.703125 20.515625 
Q 16.703125 13.921875 20.71875 10.15625 
Q 24.75 6.390625 31.78125 6.390625 
Q 38.8125 6.390625 42.859375 10.171875 
Q 46.921875 13.96875 46.921875 20.515625 
Q 46.921875 27.09375 42.890625 30.859375 
Q 38.875 34.625 31.78125 34.625 
z
M 21.921875 38.8125 
Q 15.578125 40.375 12.03125 44.71875 
Q 8.5 49.078125 8.5 55.328125 
Q 8.5 64.0625 14.71875 69.140625 
Q 20.953125 74.21875 31.78125 74.21875 
Q 42.671875 74.21875 48.875 69.140625 
Q 55.078125 64.0625 55.078125 55.328125 
Q 55.078125 49.078125 51.53125 44.71875 
Q 48 40.375 41.703125 38.8125 
Q 48.828125 37.15625 52.796875 32.3125 
Q 56.78125 27.484375 56.78125 20.515625 
Q 56.78125 9.90625 50.3125 4.234375 
Q 43.84375 -1.421875 31.78125 -1.421875 
Q 19.734375 -1.421875 13.25 4.234375 
Q 6.78125 9.90625 6.78125 20.515625 
Q 6.78125 27.484375 10.78125 32.3125 
Q 14.796875 37.15625 21.921875 38.8125 
z
M 18.3125 54.390625 
Q 18.3125 48.734375 21.84375 45.5625 
Q 25.390625 42.390625 31.78125 42.390625 
Q 38.140625 42.390625 41.71875 45.5625 
Q 45.3125 48.734375 45.3125 54.390625 
Q 45.3125 60.0625 41.71875 63.234375 
Q 38.140625 66.40625 31.78125 66.40625 
Q 25.390625 66.40625 21.84375 63.234375 
Q 18.3125 60.0625 18.3125 54.390625 
z
" id="DejaVuSans-56"/>
      </defs>
      <g transform="translate(824.721375 219.305375)scale(0.168 -0.168)">
       <use xlink:href="#DejaVuSans-48"/>
       <use x="63.623047" xlink:href="#DejaVuSans-46"/>
       <use x="95.410156" xlink:href="#DejaVuSans-56"/>
      </g>
     </g>
    </g>
    <g id="xtick_6">
     <g id="line2d_11">
      <path clip-path="url(#p1ba3915495)" d="M 1026 203.04 
L 1026 86.4 
" style="fill:none;stroke:#cbcbcb;"/>
     </g>
     <g id="line2d_12"/>
     <g id="text_6">
      <!-- 1.0 -->
      <defs>
       <path d="M 12.40625 8.296875 
L 28.515625 8.296875 
L 28.515625 63.921875 
L 10.984375 60.40625 
L 10.984375 69.390625 
L 28.421875 72.90625 
L 38.28125 72.90625 
L 38.28125 8.296875 
L 54.390625 8.296875 
L 54.390625 0 
L 12.40625 0 
z
" id="DejaVuSans-49"/>
      </defs>
      <g transform="translate(1012.641375 219.305375)scale(0.168 -0.168)">
       <use xlink:href="#DejaVuSans-49"/>
       <use x="63.623047" xlink:href="#DejaVuSans-46"/>
       <use x="95.410156" xlink:href="#DejaVuSans-48"/>
      </g>
     </g>
    </g>
   </g>
   <g id="matplotlib.axis_2">
    <g id="ytick_1">
     <g id="line2d_13">
      <path clip-path="url(#p1ba3915495)" d="M 86.4 203.04 
L 1026 203.04 
" style="fill:none;stroke:#cbcbcb;"/>
     </g>
     <g id="line2d_14"/>
     <g id="text_7">
      <!-- 0 -->
      <g transform="translate(72.211 209.422687)scale(0.168 -0.168)">
       <use xlink:href="#DejaVuSans-48"/>
      </g>
     </g>
    </g>
    <g id="ytick_2">
     <g id="line2d_15">
      <path clip-path="url(#p1ba3915495)" d="M 86.4 159.866062 
L 1026 159.866062 
" style="fill:none;stroke:#cbcbcb;"/>
     </g>
     <g id="line2d_16"/>
     <g id="text_8">
      <!-- 5 -->
      <defs>
       <path d="M 10.796875 72.90625 
L 49.515625 72.90625 
L 49.515625 64.59375 
L 19.828125 64.59375 
L 19.828125 46.734375 
Q 21.96875 47.46875 24.109375 47.828125 
Q 26.265625 48.1875 28.421875 48.1875 
Q 40.625 48.1875 47.75 41.5 
Q 54.890625 34.8125 54.890625 23.390625 
Q 54.890625 11.625 47.5625 5.09375 
Q 40.234375 -1.421875 26.90625 -1.421875 
Q 22.3125 -1.421875 17.546875 -0.640625 
Q 12.796875 0.140625 7.71875 1.703125 
L 7.71875 11.625 
Q 12.109375 9.234375 16.796875 8.0625 
Q 21.484375 6.890625 26.703125 6.890625 
Q 35.15625 6.890625 40.078125 11.328125 
Q 45.015625 15.765625 45.015625 23.390625 
Q 45.015625 31 40.078125 35.4375 
Q 35.15625 39.890625 26.703125 39.890625 
Q 22.75 39.890625 18.8125 39.015625 
Q 14.890625 38.140625 10.796875 36.28125 
z
" id="DejaVuSans-53"/>
      </defs>
      <g transform="translate(72.211 166.248749)scale(0.168 -0.168)">
       <use xlink:href="#DejaVuSans-53"/>
      </g>
     </g>
    </g>
    <g id="ytick_3">
     <g id="line2d_17">
      <path clip-path="url(#p1ba3915495)" d="M 86.4 116.692123 
L 1026 116.692123 
" style="fill:none;stroke:#cbcbcb;"/>
     </g>
     <g id="line2d_18"/>
     <g id="text_9">
      <!-- 10 -->
      <g transform="translate(61.522 123.074811)scale(0.168 -0.168)">
       <use xlink:href="#DejaVuSans-49"/>
       <use x="63.623047" xlink:href="#DejaVuSans-48"/>
      </g>
     </g>
    </g>
   </g>
   <g id="patch_3">
    <path clip-path="url(#p1ba3915495)" d="M 651.186335 203.04 
L 651.186335 202.946983 
L 660.367718 202.946983 
L 660.367718 203.016746 
L 669.549101 203.016746 
L 669.549101 202.830711 
L 678.730484 202.830711 
L 678.730484 202.412134 
L 687.911867 202.412134 
L 687.911867 201.854032 
L 697.09325 201.854032 
L 697.09325 199.598366 
L 706.274633 199.598366 
L 706.274633 196.85436 
L 715.456016 196.85436 
L 715.456016 188.413055 
L 724.637399 188.413055 
L 724.637399 179.460156 
L 733.818782 179.460156 
L 733.818782 164.647177 
L 743.000165 164.647177 
L 743.000165 145.601919 
L 752.181548 145.601919 
L 752.181548 124.6033 
L 761.362931 124.6033 
L 761.362931 105.93011 
L 770.544314 105.93011 
L 770.544314 92.837949 
L 779.725697 92.837949 
L 779.725697 91.954286 
L 788.90708 91.954286 
L 788.90708 97.442297 
L 798.088463 97.442297 
L 798.088463 114.045855 
L 807.269846 114.045855 
L 807.269846 141.044079 
L 816.451229 141.044079 
L 816.451229 162.414766 
L 825.632612 162.414766 
L 825.632612 178.157916 
L 834.813995 178.157916 
L 834.813995 191.110552 
L 843.995378 191.110552 
L 843.995378 198.063583 
L 853.176761 198.063583 
L 853.176761 201.621489 
L 862.358144 201.621489 
L 862.358144 202.528406 
L 871.539527 202.528406 
L 871.539527 202.946983 
L 880.72091 202.946983 
L 880.72091 203.04 
L 871.539527 203.04 
L 871.539527 203.04 
L 862.358144 203.04 
L 862.358144 203.04 
L 853.176761 203.04 
L 853.176761 203.04 
L 843.995378 203.04 
L 843.995378 203.04 
L 834.813995 203.04 
L 834.813995 203.04 
L 825.632612 203.04 
L 825.632612 203.04 
L 816.451229 203.04 
L 816.451229 203.04 
L 807.269846 203.04 
L 807.269846 203.04 
L 798.088463 203.04 
L 798.088463 203.04 
L 788.90708 203.04 
L 788.90708 203.04 
L 779.725697 203.04 
L 779.725697 203.04 
L 770.544314 203.04 
L 770.544314 203.04 
L 761.362931 203.04 
L 761.362931 203.04 
L 752.181548 203.04 
L 752.181548 203.04 
L 743.000165 203.04 
L 743.000165 203.04 
L 733.818782 203.04 
L 733.818782 203.04 
L 724.637399 203.04 
L 724.637399 203.04 
L 715.456016 203.04 
L 715.456016 203.04 
L 706.274633 203.04 
L 706.274633 203.04 
L 697.09325 203.04 
L 697.09325 203.04 
L 687.911867 203.04 
L 687.911867 203.04 
L 678.730484 203.04 
L 678.730484 203.04 
L 669.549101 203.04 
L 669.549101 203.04 
L 660.367718 203.04 
L 660.367718 203.04 
z
" style="fill:#006bb6;opacity:0.85;"/>
   </g>
   <g id="LineCollection_1">
    <path clip-path="url(#p1ba3915495)" d="M 781.704 203.04 
L 781.704 95.105154 
" style="fill:none;stroke:#ffffff;stroke-dasharray:14.8,6.4;stroke-dashoffset:0;stroke-opacity:0.5;stroke-width:4;"/>
   </g>
   <g id="LineCollection_2">
    <path clip-path="url(#p1ba3915495)" d="M 725.328 203.04 
L 725.328 191.814776 
" style="fill:none;stroke:#000000;stroke-dasharray:14.8,6.4;stroke-dashoffset:0;stroke-opacity:0.5;stroke-width:4;"/>
   </g>
   <g id="LineCollection_3">
    <path clip-path="url(#p1ba3915495)" d="M 838.08 203.04 
L 838.08 191.814776 
" style="fill:none;stroke:#000000;stroke-dasharray:14.8,6.4;stroke-dashoffset:0;stroke-opacity:0.5;stroke-width:4;"/>
   </g>
   <g id="patch_4">
    <path d="M 86.4 203.04 
L 86.4 86.4 
" style="fill:none;stroke:#f0f0f0;stroke-linecap:square;stroke-linejoin:miter;stroke-width:3;"/>
   </g>
   <g id="patch_5">
    <path d="M 1026 203.04 
L 1026 86.4 
" style="fill:none;stroke:#f0f0f0;stroke-linecap:square;stroke-linejoin:miter;stroke-width:3;"/>
   </g>
   <g id="patch_6">
    <path d="M 86.4 203.04 
L 1026 203.04 
" style="fill:none;stroke:#f0f0f0;stroke-linecap:square;stroke-linejoin:miter;stroke-width:3;"/>
   </g>
   <g id="patch_7">
    <path d="M 86.4 86.4 
L 1026 86.4 
" style="fill:none;stroke:#f0f0f0;stroke-linecap:square;stroke-linejoin:miter;stroke-width:3;"/>
   </g>
   <g id="text_10">
    <!-- Regular Season  -->
    <defs>
     <path d="M 44.390625 34.1875 
Q 47.5625 33.109375 50.5625 29.59375 
Q 53.5625 26.078125 56.59375 19.921875 
L 66.609375 0 
L 56 0 
L 46.6875 18.703125 
Q 43.0625 26.03125 39.671875 28.421875 
Q 36.28125 30.8125 30.421875 30.8125 
L 19.671875 30.8125 
L 19.671875 0 
L 9.8125 0 
L 9.8125 72.90625 
L 32.078125 72.90625 
Q 44.578125 72.90625 50.734375 67.671875 
Q 56.890625 62.453125 56.890625 51.90625 
Q 56.890625 45.015625 53.6875 40.46875 
Q 50.484375 35.9375 44.390625 34.1875 
z
M 19.671875 64.796875 
L 19.671875 38.921875 
L 32.078125 38.921875 
Q 39.203125 38.921875 42.84375 42.21875 
Q 46.484375 45.515625 46.484375 51.90625 
Q 46.484375 58.296875 42.84375 61.546875 
Q 39.203125 64.796875 32.078125 64.796875 
z
" id="DejaVuSans-82"/>
     <path d="M 56.203125 29.59375 
L 56.203125 25.203125 
L 14.890625 25.203125 
Q 15.484375 15.921875 20.484375 11.0625 
Q 25.484375 6.203125 34.421875 6.203125 
Q 39.59375 6.203125 44.453125 7.46875 
Q 49.3125 8.734375 54.109375 11.28125 
L 54.109375 2.78125 
Q 49.265625 0.734375 44.1875 -0.34375 
Q 39.109375 -1.421875 33.890625 -1.421875 
Q 20.796875 -1.421875 13.15625 6.1875 
Q 5.515625 13.8125 5.515625 26.8125 
Q 5.515625 40.234375 12.765625 48.109375 
Q 20.015625 56 32.328125 56 
Q 43.359375 56 49.78125 48.890625 
Q 56.203125 41.796875 56.203125 29.59375 
z
M 47.21875 32.234375 
Q 47.125 39.59375 43.09375 43.984375 
Q 39.0625 48.390625 32.421875 48.390625 
Q 24.90625 48.390625 20.390625 44.140625 
Q 15.875 39.890625 15.1875 32.171875 
z
" id="DejaVuSans-101"/>
     <path d="M 45.40625 27.984375 
Q 45.40625 37.75 41.375 43.109375 
Q 37.359375 48.484375 30.078125 48.484375 
Q 22.859375 48.484375 18.828125 43.109375 
Q 14.796875 37.75 14.796875 27.984375 
Q 14.796875 18.265625 18.828125 12.890625 
Q 22.859375 7.515625 30.078125 7.515625 
Q 37.359375 7.515625 41.375 12.890625 
Q 45.40625 18.265625 45.40625 27.984375 
z
M 54.390625 6.78125 
Q 54.390625 -7.171875 48.1875 -13.984375 
Q 42 -20.796875 29.203125 -20.796875 
Q 24.46875 -20.796875 20.265625 -20.09375 
Q 16.0625 -19.390625 12.109375 -17.921875 
L 12.109375 -9.1875 
Q 16.0625 -11.328125 19.921875 -12.34375 
Q 23.78125 -13.375 27.78125 -13.375 
Q 36.625 -13.375 41.015625 -8.765625 
Q 45.40625 -4.15625 45.40625 5.171875 
L 45.40625 9.625 
Q 42.625 4.78125 38.28125 2.390625 
Q 33.9375 0 27.875 0 
Q 17.828125 0 11.671875 7.65625 
Q 5.515625 15.328125 5.515625 27.984375 
Q 5.515625 40.671875 11.671875 48.328125 
Q 17.828125 56 27.875 56 
Q 33.9375 56 38.28125 53.609375 
Q 42.625 51.21875 45.40625 46.390625 
L 45.40625 54.6875 
L 54.390625 54.6875 
z
" id="DejaVuSans-103"/>
     <path d="M 8.5 21.578125 
L 8.5 54.6875 
L 17.484375 54.6875 
L 17.484375 21.921875 
Q 17.484375 14.15625 20.5 10.265625 
Q 23.53125 6.390625 29.59375 6.390625 
Q 36.859375 6.390625 41.078125 11.03125 
Q 45.3125 15.671875 45.3125 23.6875 
L 45.3125 54.6875 
L 54.296875 54.6875 
L 54.296875 0 
L 45.3125 0 
L 45.3125 8.40625 
Q 42.046875 3.421875 37.71875 1 
Q 33.40625 -1.421875 27.6875 -1.421875 
Q 18.265625 -1.421875 13.375 4.4375 
Q 8.5 10.296875 8.5 21.578125 
z
M 31.109375 56 
z
" id="DejaVuSans-117"/>
     <path d="M 9.421875 75.984375 
L 18.40625 75.984375 
L 18.40625 0 
L 9.421875 0 
z
" id="DejaVuSans-108"/>
     <path d="M 34.28125 27.484375 
Q 23.390625 27.484375 19.1875 25 
Q 14.984375 22.515625 14.984375 16.5 
Q 14.984375 11.71875 18.140625 8.90625 
Q 21.296875 6.109375 26.703125 6.109375 
Q 34.1875 6.109375 38.703125 11.40625 
Q 43.21875 16.703125 43.21875 25.484375 
L 43.21875 27.484375 
z
M 52.203125 31.203125 
L 52.203125 0 
L 43.21875 0 
L 43.21875 8.296875 
Q 40.140625 3.328125 35.546875 0.953125 
Q 30.953125 -1.421875 24.3125 -1.421875 
Q 15.921875 -1.421875 10.953125 3.296875 
Q 6 8.015625 6 15.921875 
Q 6 25.140625 12.171875 29.828125 
Q 18.359375 34.515625 30.609375 34.515625 
L 43.21875 34.515625 
L 43.21875 35.40625 
Q 43.21875 41.609375 39.140625 45 
Q 35.0625 48.390625 27.6875 48.390625 
Q 23 48.390625 18.546875 47.265625 
Q 14.109375 46.140625 10.015625 43.890625 
L 10.015625 52.203125 
Q 14.9375 54.109375 19.578125 55.046875 
Q 24.21875 56 28.609375 56 
Q 40.484375 56 46.34375 49.84375 
Q 52.203125 43.703125 52.203125 31.203125 
z
" id="DejaVuSans-97"/>
     <path d="M 41.109375 46.296875 
Q 39.59375 47.171875 37.8125 47.578125 
Q 36.03125 48 33.890625 48 
Q 26.265625 48 22.1875 43.046875 
Q 18.109375 38.09375 18.109375 28.8125 
L 18.109375 0 
L 9.078125 0 
L 9.078125 54.6875 
L 18.109375 54.6875 
L 18.109375 46.1875 
Q 20.953125 51.171875 25.484375 53.578125 
Q 30.03125 56 36.53125 56 
Q 37.453125 56 38.578125 55.875 
Q 39.703125 55.765625 41.0625 55.515625 
z
" id="DejaVuSans-114"/>
     <path id="DejaVuSans-32"/>
     <path d="M 53.515625 70.515625 
L 53.515625 60.890625 
Q 47.90625 63.578125 42.921875 64.890625 
Q 37.9375 66.21875 33.296875 66.21875 
Q 25.25 66.21875 20.875 63.09375 
Q 16.5 59.96875 16.5 54.203125 
Q 16.5 49.359375 19.40625 46.890625 
Q 22.3125 44.4375 30.421875 42.921875 
L 36.375 41.703125 
Q 47.40625 39.59375 52.65625 34.296875 
Q 57.90625 29 57.90625 20.125 
Q 57.90625 9.515625 50.796875 4.046875 
Q 43.703125 -1.421875 29.984375 -1.421875 
Q 24.8125 -1.421875 18.96875 -0.25 
Q 13.140625 0.921875 6.890625 3.21875 
L 6.890625 13.375 
Q 12.890625 10.015625 18.65625 8.296875 
Q 24.421875 6.59375 29.984375 6.59375 
Q 38.421875 6.59375 43.015625 9.90625 
Q 47.609375 13.234375 47.609375 19.390625 
Q 47.609375 24.75 44.3125 27.78125 
Q 41.015625 30.8125 33.5 32.328125 
L 27.484375 33.5 
Q 16.453125 35.6875 11.515625 40.375 
Q 6.59375 45.0625 6.59375 53.421875 
Q 6.59375 63.09375 13.40625 68.65625 
Q 20.21875 74.21875 32.171875 74.21875 
Q 37.3125 74.21875 42.625 73.28125 
Q 47.953125 72.359375 53.515625 70.515625 
z
" id="DejaVuSans-83"/>
     <path d="M 44.28125 53.078125 
L 44.28125 44.578125 
Q 40.484375 46.53125 36.375 47.5 
Q 32.28125 48.484375 27.875 48.484375 
Q 21.1875 48.484375 17.84375 46.4375 
Q 14.5 44.390625 14.5 40.28125 
Q 14.5 37.15625 16.890625 35.375 
Q 19.28125 33.59375 26.515625 31.984375 
L 29.59375 31.296875 
Q 39.15625 29.25 43.1875 25.515625 
Q 47.21875 21.78125 47.21875 15.09375 
Q 47.21875 7.46875 41.1875 3.015625 
Q 35.15625 -1.421875 24.609375 -1.421875 
Q 20.21875 -1.421875 15.453125 -0.5625 
Q 10.6875 0.296875 5.421875 2 
L 5.421875 11.28125 
Q 10.40625 8.6875 15.234375 7.390625 
Q 20.0625 6.109375 24.8125 6.109375 
Q 31.15625 6.109375 34.5625 8.28125 
Q 37.984375 10.453125 37.984375 14.40625 
Q 37.984375 18.0625 35.515625 20.015625 
Q 33.0625 21.96875 24.703125 23.78125 
L 21.578125 24.515625 
Q 13.234375 26.265625 9.515625 29.90625 
Q 5.8125 33.546875 5.8125 39.890625 
Q 5.8125 47.609375 11.28125 51.796875 
Q 16.75 56 26.8125 56 
Q 31.78125 56 36.171875 55.265625 
Q 40.578125 54.546875 44.28125 53.078125 
z
" id="DejaVuSans-115"/>
     <path d="M 30.609375 48.390625 
Q 23.390625 48.390625 19.1875 42.75 
Q 14.984375 37.109375 14.984375 27.296875 
Q 14.984375 17.484375 19.15625 11.84375 
Q 23.34375 6.203125 30.609375 6.203125 
Q 37.796875 6.203125 41.984375 11.859375 
Q 46.1875 17.53125 46.1875 27.296875 
Q 46.1875 37.015625 41.984375 42.703125 
Q 37.796875 48.390625 30.609375 48.390625 
z
M 30.609375 56 
Q 42.328125 56 49.015625 48.375 
Q 55.71875 40.765625 55.71875 27.296875 
Q 55.71875 13.875 49.015625 6.21875 
Q 42.328125 -1.421875 30.609375 -1.421875 
Q 18.84375 -1.421875 12.171875 6.21875 
Q 5.515625 13.875 5.515625 27.296875 
Q 5.515625 40.765625 12.171875 48.375 
Q 18.84375 56 30.609375 56 
z
" id="DejaVuSans-111"/>
     <path d="M 54.890625 33.015625 
L 54.890625 0 
L 45.90625 0 
L 45.90625 32.71875 
Q 45.90625 40.484375 42.875 44.328125 
Q 39.84375 48.1875 33.796875 48.1875 
Q 26.515625 48.1875 22.3125 43.546875 
Q 18.109375 38.921875 18.109375 30.90625 
L 18.109375 0 
L 9.078125 0 
L 9.078125 54.6875 
L 18.109375 54.6875 
L 18.109375 46.1875 
Q 21.34375 51.125 25.703125 53.5625 
Q 30.078125 56 35.796875 56 
Q 45.21875 56 50.046875 50.171875 
Q 54.890625 44.34375 54.890625 33.015625 
z
" id="DejaVuSans-110"/>
    </defs>
    <g transform="translate(474.0984 12.5868)scale(0.2016 -0.2016)">
     <use xlink:href="#DejaVuSans-82"/>
     <use x="69.419922" xlink:href="#DejaVuSans-101"/>
     <use x="130.943359" xlink:href="#DejaVuSans-103"/>
     <use x="194.419922" xlink:href="#DejaVuSans-117"/>
     <use x="257.798828" xlink:href="#DejaVuSans-108"/>
     <use x="285.582031" xlink:href="#DejaVuSans-97"/>
     <use x="346.861328" xlink:href="#DejaVuSans-114"/>
     <use x="387.974609" xlink:href="#DejaVuSans-32"/>
     <use x="419.761719" xlink:href="#DejaVuSans-83"/>
     <use x="483.238281" xlink:href="#DejaVuSans-101"/>
     <use x="544.761719" xlink:href="#DejaVuSans-97"/>
     <use x="606.041016" xlink:href="#DejaVuSans-115"/>
     <use x="658.140625" xlink:href="#DejaVuSans-111"/>
     <use x="719.322266" xlink:href="#DejaVuSans-110"/>
     <use x="782.701172" xlink:href="#DejaVuSans-32"/>
    </g>
    <!--  Posterior distributions of $p_A$, $p_B$, and delta unknowns  -->
    <defs>
     <path d="M 19.671875 64.796875 
L 19.671875 37.40625 
L 32.078125 37.40625 
Q 38.96875 37.40625 42.71875 40.96875 
Q 46.484375 44.53125 46.484375 51.125 
Q 46.484375 57.671875 42.71875 61.234375 
Q 38.96875 64.796875 32.078125 64.796875 
z
M 9.8125 72.90625 
L 32.078125 72.90625 
Q 44.34375 72.90625 50.609375 67.359375 
Q 56.890625 61.8125 56.890625 51.125 
Q 56.890625 40.328125 50.609375 34.8125 
Q 44.34375 29.296875 32.078125 29.296875 
L 19.671875 29.296875 
L 19.671875 0 
L 9.8125 0 
z
" id="DejaVuSans-80"/>
     <path d="M 18.3125 70.21875 
L 18.3125 54.6875 
L 36.8125 54.6875 
L 36.8125 47.703125 
L 18.3125 47.703125 
L 18.3125 18.015625 
Q 18.3125 11.328125 20.140625 9.421875 
Q 21.96875 7.515625 27.59375 7.515625 
L 36.8125 7.515625 
L 36.8125 0 
L 27.59375 0 
Q 17.1875 0 13.234375 3.875 
Q 9.28125 7.765625 9.28125 18.015625 
L 9.28125 47.703125 
L 2.6875 47.703125 
L 2.6875 54.6875 
L 9.28125 54.6875 
L 9.28125 70.21875 
z
" id="DejaVuSans-116"/>
     <path d="M 9.421875 54.6875 
L 18.40625 54.6875 
L 18.40625 0 
L 9.421875 0 
z
M 9.421875 75.984375 
L 18.40625 75.984375 
L 18.40625 64.59375 
L 9.421875 64.59375 
z
" id="DejaVuSans-105"/>
     <path d="M 45.40625 46.390625 
L 45.40625 75.984375 
L 54.390625 75.984375 
L 54.390625 0 
L 45.40625 0 
L 45.40625 8.203125 
Q 42.578125 3.328125 38.25 0.953125 
Q 33.9375 -1.421875 27.875 -1.421875 
Q 17.96875 -1.421875 11.734375 6.484375 
Q 5.515625 14.40625 5.515625 27.296875 
Q 5.515625 40.1875 11.734375 48.09375 
Q 17.96875 56 27.875 56 
Q 33.9375 56 38.25 53.625 
Q 42.578125 51.265625 45.40625 46.390625 
z
M 14.796875 27.296875 
Q 14.796875 17.390625 18.875 11.75 
Q 22.953125 6.109375 30.078125 6.109375 
Q 37.203125 6.109375 41.296875 11.75 
Q 45.40625 17.390625 45.40625 27.296875 
Q 45.40625 37.203125 41.296875 42.84375 
Q 37.203125 48.484375 30.078125 48.484375 
Q 22.953125 48.484375 18.875 42.84375 
Q 14.796875 37.203125 14.796875 27.296875 
z
" id="DejaVuSans-100"/>
     <path d="M 48.6875 27.296875 
Q 48.6875 37.203125 44.609375 42.84375 
Q 40.53125 48.484375 33.40625 48.484375 
Q 26.265625 48.484375 22.1875 42.84375 
Q 18.109375 37.203125 18.109375 27.296875 
Q 18.109375 17.390625 22.1875 11.75 
Q 26.265625 6.109375 33.40625 6.109375 
Q 40.53125 6.109375 44.609375 11.75 
Q 48.6875 17.390625 48.6875 27.296875 
z
M 18.109375 46.390625 
Q 20.953125 51.265625 25.265625 53.625 
Q 29.59375 56 35.59375 56 
Q 45.5625 56 51.78125 48.09375 
Q 58.015625 40.1875 58.015625 27.296875 
Q 58.015625 14.40625 51.78125 6.484375 
Q 45.5625 -1.421875 35.59375 -1.421875 
Q 29.59375 -1.421875 25.265625 0.953125 
Q 20.953125 3.328125 18.109375 8.203125 
L 18.109375 0 
L 9.078125 0 
L 9.078125 75.984375 
L 18.109375 75.984375 
z
" id="DejaVuSans-98"/>
     <path d="M 37.109375 75.984375 
L 37.109375 68.5 
L 28.515625 68.5 
Q 23.6875 68.5 21.796875 66.546875 
Q 19.921875 64.59375 19.921875 59.515625 
L 19.921875 54.6875 
L 34.71875 54.6875 
L 34.71875 47.703125 
L 19.921875 47.703125 
L 19.921875 0 
L 10.890625 0 
L 10.890625 47.703125 
L 2.296875 47.703125 
L 2.296875 54.6875 
L 10.890625 54.6875 
L 10.890625 58.5 
Q 10.890625 67.625 15.140625 71.796875 
Q 19.390625 75.984375 28.609375 75.984375 
z
" id="DejaVuSans-102"/>
     <path d="M 49.609375 33.6875 
Q 49.609375 40.875 46.484375 44.671875 
Q 43.359375 48.484375 37.5 48.484375 
Q 33.5 48.484375 29.859375 46.4375 
Q 26.21875 44.390625 23.390625 40.484375 
Q 20.609375 36.625 18.9375 31.15625 
Q 17.28125 25.6875 17.28125 20.3125 
Q 17.28125 13.484375 20.40625 9.796875 
Q 23.53125 6.109375 29.296875 6.109375 
Q 33.546875 6.109375 37.1875 8.109375 
Q 40.828125 10.109375 43.40625 13.921875 
Q 46.1875 17.921875 47.890625 23.34375 
Q 49.609375 28.765625 49.609375 33.6875 
z
M 21.78125 46.390625 
Q 25.390625 51.125 30.296875 53.5625 
Q 35.203125 56 41.21875 56 
Q 49.609375 56 54.25 50.5 
Q 58.890625 45.015625 58.890625 35.109375 
Q 58.890625 27 56 19.65625 
Q 53.125 12.3125 47.703125 6.5 
Q 44.09375 2.640625 39.546875 0.609375 
Q 35.015625 -1.421875 29.984375 -1.421875 
Q 24.171875 -1.421875 20.21875 1 
Q 16.265625 3.421875 14.3125 8.203125 
L 8.6875 -20.796875 
L -0.296875 -20.796875 
L 14.40625 54.6875 
L 23.390625 54.6875 
z
" id="DejaVuSans-Oblique-112"/>
     <path d="M 36.8125 72.90625 
L 48 72.90625 
L 61.53125 0 
L 51.21875 0 
L 48.1875 18.703125 
L 15.375 18.703125 
L 5.078125 0 
L -5.328125 0 
z
M 40.375 63.1875 
L 19.921875 26.90625 
L 46.6875 26.90625 
z
" id="DejaVuSans-Oblique-65"/>
     <path d="M 11.71875 12.40625 
L 22.015625 12.40625 
L 22.015625 4 
L 14.015625 -11.625 
L 7.71875 -11.625 
L 11.71875 4 
z
" id="DejaVuSans-44"/>
     <path d="M 16.890625 72.90625 
L 42.09375 72.90625 
Q 52.34375 72.90625 57.421875 69.09375 
Q 62.5 65.28125 62.5 57.625 
Q 62.5 50.59375 58.125 45.484375 
Q 53.765625 40.375 46.6875 39.3125 
Q 52.734375 37.9375 55.765625 34.078125 
Q 58.796875 30.21875 58.796875 23.78125 
Q 58.796875 12.796875 50.65625 6.390625 
Q 42.53125 0 28.421875 0 
L 2.6875 0 
z
M 19.28125 34.8125 
L 14.109375 8.109375 
L 29.984375 8.109375 
Q 38.921875 8.109375 43.75 12.203125 
Q 48.578125 16.3125 48.578125 23.78125 
Q 48.578125 29.546875 45.375 32.171875 
Q 42.1875 34.8125 35.109375 34.8125 
z
M 25.09375 64.796875 
L 20.796875 42.828125 
L 35.5 42.828125 
Q 43.359375 42.828125 47.78125 46.234375 
Q 52.203125 49.65625 52.203125 55.71875 
Q 52.203125 60.453125 49.21875 62.625 
Q 46.234375 64.796875 39.703125 64.796875 
z
" id="DejaVuSans-Oblique-66"/>
     <path d="M 9.078125 75.984375 
L 18.109375 75.984375 
L 18.109375 31.109375 
L 44.921875 54.6875 
L 56.390625 54.6875 
L 27.390625 29.109375 
L 57.625 0 
L 45.90625 0 
L 18.109375 26.703125 
L 18.109375 0 
L 9.078125 0 
z
" id="DejaVuSans-107"/>
     <path d="M 4.203125 54.6875 
L 13.1875 54.6875 
L 24.421875 12.015625 
L 35.59375 54.6875 
L 46.1875 54.6875 
L 57.421875 12.015625 
L 68.609375 54.6875 
L 77.59375 54.6875 
L 63.28125 0 
L 52.6875 0 
L 40.921875 44.828125 
L 29.109375 0 
L 18.5 0 
z
" id="DejaVuSans-119"/>
    </defs>
    <g transform="translate(285.048 35.16537)scale(0.2016 -0.2016)">
     <use transform="translate(0 0.015625)" xlink:href="#DejaVuSans-32"/>
     <use transform="translate(31.787109 0.015625)" xlink:href="#DejaVuSans-80"/>
     <use transform="translate(92.089844 0.015625)" xlink:href="#DejaVuSans-111"/>
     <use transform="translate(153.271484 0.015625)" xlink:href="#DejaVuSans-115"/>
     <use transform="translate(205.371094 0.015625)" xlink:href="#DejaVuSans-116"/>
     <use transform="translate(244.580078 0.015625)" xlink:href="#DejaVuSans-101"/>
     <use transform="translate(306.103516 0.015625)" xlink:href="#DejaVuSans-114"/>
     <use transform="translate(347.216797 0.015625)" xlink:href="#DejaVuSans-105"/>
     <use transform="translate(375 0.015625)" xlink:href="#DejaVuSans-111"/>
     <use transform="translate(436.181641 0.015625)" xlink:href="#DejaVuSans-114"/>
     <use transform="translate(477.294922 0.015625)" xlink:href="#DejaVuSans-32"/>
     <use transform="translate(509.082031 0.015625)" xlink:href="#DejaVuSans-100"/>
     <use transform="translate(572.558594 0.015625)" xlink:href="#DejaVuSans-105"/>
     <use transform="translate(600.341797 0.015625)" xlink:href="#DejaVuSans-115"/>
     <use transform="translate(652.441406 0.015625)" xlink:href="#DejaVuSans-116"/>
     <use transform="translate(691.650391 0.015625)" xlink:href="#DejaVuSans-114"/>
     <use transform="translate(732.763672 0.015625)" xlink:href="#DejaVuSans-105"/>
     <use transform="translate(760.546875 0.015625)" xlink:href="#DejaVuSans-98"/>
     <use transform="translate(824.023438 0.015625)" xlink:href="#DejaVuSans-117"/>
     <use transform="translate(887.402344 0.015625)" xlink:href="#DejaVuSans-116"/>
     <use transform="translate(926.611328 0.015625)" xlink:href="#DejaVuSans-105"/>
     <use transform="translate(954.394531 0.015625)" xlink:href="#DejaVuSans-111"/>
     <use transform="translate(1015.576172 0.015625)" xlink:href="#DejaVuSans-110"/>
     <use transform="translate(1078.955078 0.015625)" xlink:href="#DejaVuSans-115"/>
     <use transform="translate(1131.054688 0.015625)" xlink:href="#DejaVuSans-32"/>
     <use transform="translate(1162.841797 0.015625)" xlink:href="#DejaVuSans-111"/>
     <use transform="translate(1224.023438 0.015625)" xlink:href="#DejaVuSans-102"/>
     <use transform="translate(1259.228516 0.015625)" xlink:href="#DejaVuSans-32"/>
     <use transform="translate(1291.015625 0.015625)" xlink:href="#DejaVuSans-Oblique-112"/>
     <use transform="translate(1354.492188 -16.390625)scale(0.7)" xlink:href="#DejaVuSans-Oblique-65"/>
     <use transform="translate(1405.112305 0.015625)" xlink:href="#DejaVuSans-44"/>
     <use transform="translate(1436.899414 0.015625)" xlink:href="#DejaVuSans-32"/>
     <use transform="translate(1468.686523 0.015625)" xlink:href="#DejaVuSans-Oblique-112"/>
     <use transform="translate(1532.163086 -16.390625)scale(0.7)" xlink:href="#DejaVuSans-Oblique-66"/>
     <use transform="translate(1582.919922 0.015625)" xlink:href="#DejaVuSans-44"/>
     <use transform="translate(1614.707031 0.015625)" xlink:href="#DejaVuSans-32"/>
     <use transform="translate(1646.494141 0.015625)" xlink:href="#DejaVuSans-97"/>
     <use transform="translate(1707.773438 0.015625)" xlink:href="#DejaVuSans-110"/>
     <use transform="translate(1771.152344 0.015625)" xlink:href="#DejaVuSans-100"/>
     <use transform="translate(1834.628906 0.015625)" xlink:href="#DejaVuSans-32"/>
     <use transform="translate(1866.416016 0.015625)" xlink:href="#DejaVuSans-100"/>
     <use transform="translate(1929.892578 0.015625)" xlink:href="#DejaVuSans-101"/>
     <use transform="translate(1991.416016 0.015625)" xlink:href="#DejaVuSans-108"/>
     <use transform="translate(2019.199219 0.015625)" xlink:href="#DejaVuSans-116"/>
     <use transform="translate(2058.408203 0.015625)" xlink:href="#DejaVuSans-97"/>
     <use transform="translate(2119.6875 0.015625)" xlink:href="#DejaVuSans-32"/>
     <use transform="translate(2151.474609 0.015625)" xlink:href="#DejaVuSans-117"/>
     <use transform="translate(2214.853516 0.015625)" xlink:href="#DejaVuSans-110"/>
     <use transform="translate(2278.232422 0.015625)" xlink:href="#DejaVuSans-107"/>
     <use transform="translate(2336.142578 0.015625)" xlink:href="#DejaVuSans-110"/>
     <use transform="translate(2399.521484 0.015625)" xlink:href="#DejaVuSans-111"/>
     <use transform="translate(2460.703125 0.015625)" xlink:href="#DejaVuSans-119"/>
     <use transform="translate(2542.490234 0.015625)" xlink:href="#DejaVuSans-110"/>
     <use transform="translate(2605.869141 0.015625)" xlink:href="#DejaVuSans-115"/>
     <use transform="translate(2657.96875 0.015625)" xlink:href="#DejaVuSans-32"/>
    </g>
    <!--  -->
    <g transform="translate(556.2 57.78111)scale(0.2016 -0.2016)"/>
    <!--  $p_A$: Mean Win % with KD -->
    <defs>
     <path d="M 11.71875 12.40625 
L 22.015625 12.40625 
L 22.015625 0 
L 11.71875 0 
z
M 11.71875 51.703125 
L 22.015625 51.703125 
L 22.015625 39.3125 
L 11.71875 39.3125 
z
" id="DejaVuSans-58"/>
     <path d="M 9.8125 72.90625 
L 24.515625 72.90625 
L 43.109375 23.296875 
L 61.8125 72.90625 
L 76.515625 72.90625 
L 76.515625 0 
L 66.890625 0 
L 66.890625 64.015625 
L 48.09375 14.015625 
L 38.1875 14.015625 
L 19.390625 64.015625 
L 19.390625 0 
L 9.8125 0 
z
" id="DejaVuSans-77"/>
     <path d="M 3.328125 72.90625 
L 13.28125 72.90625 
L 28.609375 11.28125 
L 43.890625 72.90625 
L 54.984375 72.90625 
L 70.3125 11.28125 
L 85.59375 72.90625 
L 95.609375 72.90625 
L 77.296875 0 
L 64.890625 0 
L 49.515625 63.28125 
L 33.984375 0 
L 21.578125 0 
z
" id="DejaVuSans-87"/>
     <path d="M 72.703125 32.078125 
Q 68.453125 32.078125 66.03125 28.46875 
Q 63.625 24.859375 63.625 18.40625 
Q 63.625 12.0625 66.03125 8.421875 
Q 68.453125 4.78125 72.703125 4.78125 
Q 76.859375 4.78125 79.265625 8.421875 
Q 81.6875 12.0625 81.6875 18.40625 
Q 81.6875 24.8125 79.265625 28.4375 
Q 76.859375 32.078125 72.703125 32.078125 
z
M 72.703125 38.28125 
Q 80.421875 38.28125 84.953125 32.90625 
Q 89.5 27.546875 89.5 18.40625 
Q 89.5 9.28125 84.9375 3.921875 
Q 80.375 -1.421875 72.703125 -1.421875 
Q 64.890625 -1.421875 60.34375 3.921875 
Q 55.8125 9.28125 55.8125 18.40625 
Q 55.8125 27.59375 60.375 32.9375 
Q 64.9375 38.28125 72.703125 38.28125 
z
M 22.3125 68.015625 
Q 18.109375 68.015625 15.6875 64.375 
Q 13.28125 60.75 13.28125 54.390625 
Q 13.28125 47.953125 15.671875 44.328125 
Q 18.0625 40.71875 22.3125 40.71875 
Q 26.5625 40.71875 28.96875 44.328125 
Q 31.390625 47.953125 31.390625 54.390625 
Q 31.390625 60.6875 28.953125 64.34375 
Q 26.515625 68.015625 22.3125 68.015625 
z
M 66.40625 74.21875 
L 74.21875 74.21875 
L 28.609375 -1.421875 
L 20.796875 -1.421875 
z
M 22.3125 74.21875 
Q 30.03125 74.21875 34.609375 68.875 
Q 39.203125 63.53125 39.203125 54.390625 
Q 39.203125 45.171875 34.640625 39.84375 
Q 30.078125 34.515625 22.3125 34.515625 
Q 14.546875 34.515625 10.03125 39.859375 
Q 5.515625 45.21875 5.515625 54.390625 
Q 5.515625 63.484375 10.046875 68.84375 
Q 14.59375 74.21875 22.3125 74.21875 
z
" id="DejaVuSans-37"/>
     <path d="M 54.890625 33.015625 
L 54.890625 0 
L 45.90625 0 
L 45.90625 32.71875 
Q 45.90625 40.484375 42.875 44.328125 
Q 39.84375 48.1875 33.796875 48.1875 
Q 26.515625 48.1875 22.3125 43.546875 
Q 18.109375 38.921875 18.109375 30.90625 
L 18.109375 0 
L 9.078125 0 
L 9.078125 75.984375 
L 18.109375 75.984375 
L 18.109375 46.1875 
Q 21.34375 51.125 25.703125 53.5625 
Q 30.078125 56 35.796875 56 
Q 45.21875 56 50.046875 50.171875 
Q 54.890625 44.34375 54.890625 33.015625 
z
" id="DejaVuSans-104"/>
     <path d="M 9.8125 72.90625 
L 19.671875 72.90625 
L 19.671875 42.09375 
L 52.390625 72.90625 
L 65.09375 72.90625 
L 28.90625 38.921875 
L 67.671875 0 
L 54.6875 0 
L 19.671875 35.109375 
L 19.671875 0 
L 9.8125 0 
z
" id="DejaVuSans-75"/>
     <path d="M 19.671875 64.796875 
L 19.671875 8.109375 
L 31.59375 8.109375 
Q 46.6875 8.109375 53.6875 14.9375 
Q 60.6875 21.78125 60.6875 36.53125 
Q 60.6875 51.171875 53.6875 57.984375 
Q 46.6875 64.796875 31.59375 64.796875 
z
M 9.8125 72.90625 
L 30.078125 72.90625 
Q 51.265625 72.90625 61.171875 64.09375 
Q 71.09375 55.28125 71.09375 36.53125 
Q 71.09375 17.671875 61.125 8.828125 
Q 51.171875 0 30.078125 0 
L 9.8125 0 
z
" id="DejaVuSans-68"/>
    </defs>
    <g transform="translate(430.0992 80.35968)scale(0.2016 -0.2016)">
     <use transform="translate(0 0.015625)" xlink:href="#DejaVuSans-32"/>
     <use transform="translate(31.787109 0.015625)" xlink:href="#DejaVuSans-Oblique-112"/>
     <use transform="translate(95.263672 -16.390625)scale(0.7)" xlink:href="#DejaVuSans-Oblique-65"/>
     <use transform="translate(145.883789 0.015625)" xlink:href="#DejaVuSans-58"/>
     <use transform="translate(179.575195 0.015625)" xlink:href="#DejaVuSans-32"/>
     <use transform="translate(211.362305 0.015625)" xlink:href="#DejaVuSans-77"/>
     <use transform="translate(297.641602 0.015625)" xlink:href="#DejaVuSans-101"/>
     <use transform="translate(359.165039 0.015625)" xlink:href="#DejaVuSans-97"/>
     <use transform="translate(420.444336 0.015625)" xlink:href="#DejaVuSans-110"/>
     <use transform="translate(483.823242 0.015625)" xlink:href="#DejaVuSans-32"/>
     <use transform="translate(515.610352 0.015625)" xlink:href="#DejaVuSans-87"/>
     <use transform="translate(614.487305 0.015625)" xlink:href="#DejaVuSans-105"/>
     <use transform="translate(642.270508 0.015625)" xlink:href="#DejaVuSans-110"/>
     <use transform="translate(705.649414 0.015625)" xlink:href="#DejaVuSans-32"/>
     <use transform="translate(737.436523 0.015625)" xlink:href="#DejaVuSans-37"/>
     <use transform="translate(832.456055 0.015625)" xlink:href="#DejaVuSans-32"/>
     <use transform="translate(864.243164 0.015625)" xlink:href="#DejaVuSans-119"/>
     <use transform="translate(946.030273 0.015625)" xlink:href="#DejaVuSans-105"/>
     <use transform="translate(973.813477 0.015625)" xlink:href="#DejaVuSans-116"/>
     <use transform="translate(1013.022461 0.015625)" xlink:href="#DejaVuSans-104"/>
     <use transform="translate(1076.401367 0.015625)" xlink:href="#DejaVuSans-32"/>
     <use transform="translate(1108.188477 0.015625)" xlink:href="#DejaVuSans-75"/>
     <use transform="translate(1173.764648 0.015625)" xlink:href="#DejaVuSans-68"/>
    </g>
   </g>
   <g id="legend_1">
    <g id="patch_8">
     <path d="M 839.016 198.51375 
L 1014.24 198.51375 
Q 1017.6 198.51375 1017.6 195.15375 
L 1017.6 98.16 
Q 1017.6 94.8 1014.24 94.8 
L 839.016 94.8 
Q 835.656 94.8 835.656 98.16 
L 835.656 195.15375 
Q 835.656 198.51375 839.016 198.51375 
z
" style="fill:#f0f0f0;opacity:0.8;stroke:#cccccc;stroke-linejoin:miter;stroke-width:0.5;"/>
    </g>
    <g id="patch_9">
     <path d="M 842.376 114.288 
L 875.976 114.288 
L 875.976 102.528 
L 842.376 102.528 
z
" style="fill:#006bb6;opacity:0.85;"/>
    </g>
    <g id="text_11">
     <!-- posterior of $p_A$ -->
     <defs>
      <path d="M 18.109375 8.203125 
L 18.109375 -20.796875 
L 9.078125 -20.796875 
L 9.078125 54.6875 
L 18.109375 54.6875 
L 18.109375 46.390625 
Q 20.953125 51.265625 25.265625 53.625 
Q 29.59375 56 35.59375 56 
Q 45.5625 56 51.78125 48.09375 
Q 58.015625 40.1875 58.015625 27.296875 
Q 58.015625 14.40625 51.78125 6.484375 
Q 45.5625 -1.421875 35.59375 -1.421875 
Q 29.59375 -1.421875 25.265625 0.953125 
Q 20.953125 3.328125 18.109375 8.203125 
z
M 48.6875 27.296875 
Q 48.6875 37.203125 44.609375 42.84375 
Q 40.53125 48.484375 33.40625 48.484375 
Q 26.265625 48.484375 22.1875 42.84375 
Q 18.109375 37.203125 18.109375 27.296875 
Q 18.109375 17.390625 22.1875 11.75 
Q 26.265625 6.109375 33.40625 6.109375 
Q 40.53125 6.109375 44.609375 11.75 
Q 48.6875 17.390625 48.6875 27.296875 
z
" id="DejaVuSans-112"/>
     </defs>
     <g transform="translate(889.416 114.288)scale(0.168 -0.168)">
      <use transform="translate(0 0.015625)" xlink:href="#DejaVuSans-112"/>
      <use transform="translate(63.476562 0.015625)" xlink:href="#DejaVuSans-111"/>
      <use transform="translate(124.658203 0.015625)" xlink:href="#DejaVuSans-115"/>
      <use transform="translate(176.757812 0.015625)" xlink:href="#DejaVuSans-116"/>
      <use transform="translate(215.966797 0.015625)" xlink:href="#DejaVuSans-101"/>
      <use transform="translate(277.490234 0.015625)" xlink:href="#DejaVuSans-114"/>
      <use transform="translate(318.603516 0.015625)" xlink:href="#DejaVuSans-105"/>
      <use transform="translate(346.386719 0.015625)" xlink:href="#DejaVuSans-111"/>
      <use transform="translate(407.568359 0.015625)" xlink:href="#DejaVuSans-114"/>
      <use transform="translate(448.681641 0.015625)" xlink:href="#DejaVuSans-32"/>
      <use transform="translate(480.46875 0.015625)" xlink:href="#DejaVuSans-111"/>
      <use transform="translate(541.650391 0.015625)" xlink:href="#DejaVuSans-102"/>
      <use transform="translate(576.855469 0.015625)" xlink:href="#DejaVuSans-32"/>
      <use transform="translate(608.642578 0.015625)" xlink:href="#DejaVuSans-Oblique-112"/>
      <use transform="translate(672.119141 -16.390625)scale(0.7)" xlink:href="#DejaVuSans-Oblique-65"/>
     </g>
    </g>
    <g id="line2d_19">
     <path d="M 842.376 133.101375 
L 875.976 133.101375 
" style="fill:none;stroke:#ffffff;stroke-dasharray:14.8,6.4;stroke-dashoffset:0;stroke-opacity:0.5;stroke-width:4;"/>
    </g>
    <g id="text_12">
     <!-- mean -->
     <defs>
      <path d="M 52 44.1875 
Q 55.375 50.25 60.0625 53.125 
Q 64.75 56 71.09375 56 
Q 79.640625 56 84.28125 50.015625 
Q 88.921875 44.046875 88.921875 33.015625 
L 88.921875 0 
L 79.890625 0 
L 79.890625 32.71875 
Q 79.890625 40.578125 77.09375 44.375 
Q 74.3125 48.1875 68.609375 48.1875 
Q 61.625 48.1875 57.5625 43.546875 
Q 53.515625 38.921875 53.515625 30.90625 
L 53.515625 0 
L 44.484375 0 
L 44.484375 32.71875 
Q 44.484375 40.625 41.703125 44.40625 
Q 38.921875 48.1875 33.109375 48.1875 
Q 26.21875 48.1875 22.15625 43.53125 
Q 18.109375 38.875 18.109375 30.90625 
L 18.109375 0 
L 9.078125 0 
L 9.078125 54.6875 
L 18.109375 54.6875 
L 18.109375 46.1875 
Q 21.1875 51.21875 25.484375 53.609375 
Q 29.78125 56 35.6875 56 
Q 41.65625 56 45.828125 52.96875 
Q 50 49.953125 52 44.1875 
z
" id="DejaVuSans-109"/>
     </defs>
     <g transform="translate(889.416 138.981375)scale(0.168 -0.168)">
      <use xlink:href="#DejaVuSans-109"/>
      <use x="97.412109" xlink:href="#DejaVuSans-101"/>
      <use x="158.935547" xlink:href="#DejaVuSans-97"/>
      <use x="220.214844" xlink:href="#DejaVuSans-110"/>
     </g>
    </g>
    <g id="line2d_20">
     <path d="M 842.376 157.760625 
L 875.976 157.760625 
" style="fill:none;stroke:#000000;stroke-dasharray:14.8,6.4;stroke-dashoffset:0;stroke-opacity:0.5;stroke-width:4;"/>
    </g>
    <g id="text_13">
     <!-- 2.5% -->
     <g transform="translate(889.416 163.640625)scale(0.168 -0.168)">
      <use xlink:href="#DejaVuSans-50"/>
      <use x="63.623047" xlink:href="#DejaVuSans-46"/>
      <use x="95.410156" xlink:href="#DejaVuSans-53"/>
      <use x="159.033203" xlink:href="#DejaVuSans-37"/>
     </g>
    </g>
    <g id="line2d_21">
     <path d="M 842.376 182.419875 
L 875.976 182.419875 
" style="fill:none;stroke:#000000;stroke-dasharray:14.8,6.4;stroke-dashoffset:0;stroke-opacity:0.5;stroke-width:4;"/>
    </g>
    <g id="text_14">
     <!-- 97.5% -->
     <defs>
      <path d="M 10.984375 1.515625 
L 10.984375 10.5 
Q 14.703125 8.734375 18.5 7.8125 
Q 22.3125 6.890625 25.984375 6.890625 
Q 35.75 6.890625 40.890625 13.453125 
Q 46.046875 20.015625 46.78125 33.40625 
Q 43.953125 29.203125 39.59375 26.953125 
Q 35.25 24.703125 29.984375 24.703125 
Q 19.046875 24.703125 12.671875 31.3125 
Q 6.296875 37.9375 6.296875 49.421875 
Q 6.296875 60.640625 12.9375 67.421875 
Q 19.578125 74.21875 30.609375 74.21875 
Q 43.265625 74.21875 49.921875 64.515625 
Q 56.59375 54.828125 56.59375 36.375 
Q 56.59375 19.140625 48.40625 8.859375 
Q 40.234375 -1.421875 26.421875 -1.421875 
Q 22.703125 -1.421875 18.890625 -0.6875 
Q 15.09375 0.046875 10.984375 1.515625 
z
M 30.609375 32.421875 
Q 37.25 32.421875 41.125 36.953125 
Q 45.015625 41.5 45.015625 49.421875 
Q 45.015625 57.28125 41.125 61.84375 
Q 37.25 66.40625 30.609375 66.40625 
Q 23.96875 66.40625 20.09375 61.84375 
Q 16.21875 57.28125 16.21875 49.421875 
Q 16.21875 41.5 20.09375 36.953125 
Q 23.96875 32.421875 30.609375 32.421875 
z
" id="DejaVuSans-57"/>
      <path d="M 8.203125 72.90625 
L 55.078125 72.90625 
L 55.078125 68.703125 
L 28.609375 0 
L 18.3125 0 
L 43.21875 64.59375 
L 8.203125 64.59375 
z
" id="DejaVuSans-55"/>
     </defs>
     <g transform="translate(889.416 188.299875)scale(0.168 -0.168)">
      <use xlink:href="#DejaVuSans-57"/>
      <use x="63.623047" xlink:href="#DejaVuSans-55"/>
      <use x="127.246094" xlink:href="#DejaVuSans-46"/>
      <use x="159.033203" xlink:href="#DejaVuSans-53"/>
      <use x="222.65625" xlink:href="#DejaVuSans-37"/>
     </g>
    </g>
   </g>
  </g>
  <g id="axes_2">
   <g id="patch_10">
    <path d="M 86.4 436.32 
L 1026 436.32 
L 1026 319.68 
L 86.4 319.68 
z
" style="fill:#f0f0f0;"/>
   </g>
   <g id="matplotlib.axis_3">
    <g id="xtick_7">
     <g id="line2d_22">
      <path clip-path="url(#pa0cdf44310)" d="M 86.4 436.32 
L 86.4 319.68 
" style="fill:none;stroke:#cbcbcb;"/>
     </g>
     <g id="line2d_23"/>
     <g id="text_15">
      <!-- 0.0 -->
      <g transform="translate(73.041375 452.585375)scale(0.168 -0.168)">
       <use xlink:href="#DejaVuSans-48"/>
       <use x="63.623047" xlink:href="#DejaVuSans-46"/>
       <use x="95.410156" xlink:href="#DejaVuSans-48"/>
      </g>
     </g>
    </g>
    <g id="xtick_8">
     <g id="line2d_24">
      <path clip-path="url(#pa0cdf44310)" d="M 274.32 436.32 
L 274.32 319.68 
" style="fill:none;stroke:#cbcbcb;"/>
     </g>
     <g id="line2d_25"/>
     <g id="text_16">
      <!-- 0.2 -->
      <g transform="translate(260.961375 452.585375)scale(0.168 -0.168)">
       <use xlink:href="#DejaVuSans-48"/>
       <use x="63.623047" xlink:href="#DejaVuSans-46"/>
       <use x="95.410156" xlink:href="#DejaVuSans-50"/>
      </g>
     </g>
    </g>
    <g id="xtick_9">
     <g id="line2d_26">
      <path clip-path="url(#pa0cdf44310)" d="M 462.24 436.32 
L 462.24 319.68 
" style="fill:none;stroke:#cbcbcb;"/>
     </g>
     <g id="line2d_27"/>
     <g id="text_17">
      <!-- 0.4 -->
      <g transform="translate(448.881375 452.585375)scale(0.168 -0.168)">
       <use xlink:href="#DejaVuSans-48"/>
       <use x="63.623047" xlink:href="#DejaVuSans-46"/>
       <use x="95.410156" xlink:href="#DejaVuSans-52"/>
      </g>
     </g>
    </g>
    <g id="xtick_10">
     <g id="line2d_28">
      <path clip-path="url(#pa0cdf44310)" d="M 650.16 436.32 
L 650.16 319.68 
" style="fill:none;stroke:#cbcbcb;"/>
     </g>
     <g id="line2d_29"/>
     <g id="text_18">
      <!-- 0.6 -->
      <g transform="translate(636.801375 452.585375)scale(0.168 -0.168)">
       <use xlink:href="#DejaVuSans-48"/>
       <use x="63.623047" xlink:href="#DejaVuSans-46"/>
       <use x="95.410156" xlink:href="#DejaVuSans-54"/>
      </g>
     </g>
    </g>
    <g id="xtick_11">
     <g id="line2d_30">
      <path clip-path="url(#pa0cdf44310)" d="M 838.08 436.32 
L 838.08 319.68 
" style="fill:none;stroke:#cbcbcb;"/>
     </g>
     <g id="line2d_31"/>
     <g id="text_19">
      <!-- 0.8 -->
      <g transform="translate(824.721375 452.585375)scale(0.168 -0.168)">
       <use xlink:href="#DejaVuSans-48"/>
       <use x="63.623047" xlink:href="#DejaVuSans-46"/>
       <use x="95.410156" xlink:href="#DejaVuSans-56"/>
      </g>
     </g>
    </g>
    <g id="xtick_12">
     <g id="line2d_32">
      <path clip-path="url(#pa0cdf44310)" d="M 1026 436.32 
L 1026 319.68 
" style="fill:none;stroke:#cbcbcb;"/>
     </g>
     <g id="line2d_33"/>
     <g id="text_20">
      <!-- 1.0 -->
      <g transform="translate(1012.641375 452.585375)scale(0.168 -0.168)">
       <use xlink:href="#DejaVuSans-49"/>
       <use x="63.623047" xlink:href="#DejaVuSans-46"/>
       <use x="95.410156" xlink:href="#DejaVuSans-48"/>
      </g>
     </g>
    </g>
   </g>
   <g id="matplotlib.axis_4">
    <g id="ytick_4">
     <g id="line2d_34">
      <path clip-path="url(#pa0cdf44310)" d="M 86.4 436.32 
L 1026 436.32 
" style="fill:none;stroke:#cbcbcb;"/>
     </g>
     <g id="line2d_35"/>
     <g id="text_21">
      <!-- 0.0 -->
      <g transform="translate(56.18275 442.702687)scale(0.168 -0.168)">
       <use xlink:href="#DejaVuSans-48"/>
       <use x="63.623047" xlink:href="#DejaVuSans-46"/>
       <use x="95.410156" xlink:href="#DejaVuSans-48"/>
      </g>
     </g>
    </g>
    <g id="ytick_5">
     <g id="line2d_36">
      <path clip-path="url(#pa0cdf44310)" d="M 86.4 388.162225 
L 1026 388.162225 
" style="fill:none;stroke:#cbcbcb;"/>
     </g>
     <g id="line2d_37"/>
     <g id="text_22">
      <!-- 2.5 -->
      <g transform="translate(56.18275 394.544913)scale(0.168 -0.168)">
       <use xlink:href="#DejaVuSans-50"/>
       <use x="63.623047" xlink:href="#DejaVuSans-46"/>
       <use x="95.410156" xlink:href="#DejaVuSans-53"/>
      </g>
     </g>
    </g>
    <g id="ytick_6">
     <g id="line2d_38">
      <path clip-path="url(#pa0cdf44310)" d="M 86.4 340.00445 
L 1026 340.00445 
" style="fill:none;stroke:#cbcbcb;"/>
     </g>
     <g id="line2d_39"/>
     <g id="text_23">
      <!-- 5.0 -->
      <g transform="translate(56.18275 346.387138)scale(0.168 -0.168)">
       <use xlink:href="#DejaVuSans-53"/>
       <use x="63.623047" xlink:href="#DejaVuSans-46"/>
       <use x="95.410156" xlink:href="#DejaVuSans-48"/>
      </g>
     </g>
    </g>
   </g>
   <g id="patch_11">
    <path clip-path="url(#pa0cdf44310)" d="M 556.270613 436.32 
L 556.270613 434.57636 
L 571.294825 434.57636 
L 571.294825 433.086341 
L 586.319037 433.086341 
L 586.319037 431.786536 
L 601.343249 431.786536 
L 601.343249 428.552877 
L 616.367461 428.552877 
L 616.367461 424.177926 
L 631.391673 424.177926 
L 631.391673 418.344658 
L 646.415884 418.344658 
L 646.415884 410.514129 
L 661.440096 410.514129 
L 661.440096 400.591233 
L 676.464308 400.591233 
L 676.464308 392.190059 
L 691.48852 392.190059 
L 691.48852 377.25816 
L 706.512732 377.25816 
L 706.512732 365.655029 
L 721.536944 365.655029 
L 721.536944 353.639765 
L 736.561156 353.639765 
L 736.561156 339.151703 
L 751.585368 339.151703 
L 751.585368 332.842896 
L 766.60958 332.842896 
L 766.60958 328.848376 
L 781.633792 328.848376 
L 781.633792 325.234286 
L 796.658004 325.234286 
L 796.658004 334.998669 
L 811.682216 334.998669 
L 811.682216 347.109041 
L 826.706428 347.109041 
L 826.706428 359.790059 
L 841.73064 359.790059 
L 841.73064 379.160313 
L 856.754852 379.160313 
L 856.754852 396.026067 
L 871.779064 396.026067 
L 871.779064 408.833894 
L 886.803275 408.833894 
L 886.803275 420.215108 
L 901.827487 420.215108 
L 901.827487 428.140744 
L 916.851699 428.140744 
L 916.851699 432.5791 
L 931.875911 432.5791 
L 931.875911 436.32 
L 916.851699 436.32 
L 916.851699 436.32 
L 901.827487 436.32 
L 901.827487 436.32 
L 886.803275 436.32 
L 886.803275 436.32 
L 871.779064 436.32 
L 871.779064 436.32 
L 856.754852 436.32 
L 856.754852 436.32 
L 841.73064 436.32 
L 841.73064 436.32 
L 826.706428 436.32 
L 826.706428 436.32 
L 811.682216 436.32 
L 811.682216 436.32 
L 796.658004 436.32 
L 796.658004 436.32 
L 781.633792 436.32 
L 781.633792 436.32 
L 766.60958 436.32 
L 766.60958 436.32 
L 751.585368 436.32 
L 751.585368 436.32 
L 736.561156 436.32 
L 736.561156 436.32 
L 721.536944 436.32 
L 721.536944 436.32 
L 706.512732 436.32 
L 706.512732 436.32 
L 691.48852 436.32 
L 691.48852 436.32 
L 676.464308 436.32 
L 676.464308 436.32 
L 661.440096 436.32 
L 661.440096 436.32 
L 646.415884 436.32 
L 646.415884 436.32 
L 631.391673 436.32 
L 631.391673 436.32 
L 616.367461 436.32 
L 616.367461 436.32 
L 601.343249 436.32 
L 601.343249 436.32 
L 586.319037 436.32 
L 586.319037 436.32 
L 571.294825 436.32 
L 571.294825 436.32 
z
" style="fill:#fdb927;opacity:0.85;"/>
   </g>
   <g id="LineCollection_4">
    <path clip-path="url(#pa0cdf44310)" d="M 772.308 436.32 
L 772.308 330.372895 
" style="fill:none;stroke:#ffffff;stroke-dasharray:14.8,6.4;stroke-dashoffset:0;stroke-opacity:0.5;stroke-width:4;"/>
   </g>
   <g id="LineCollection_5">
    <path clip-path="url(#pa0cdf44310)" d="M 640.764 436.32 
L 640.764 420.909512 
" style="fill:none;stroke:#000000;stroke-dasharray:14.8,6.4;stroke-dashoffset:0;stroke-opacity:0.5;stroke-width:4;"/>
   </g>
   <g id="LineCollection_6">
    <path clip-path="url(#pa0cdf44310)" d="M 885.06 436.32 
L 885.06 420.909512 
" style="fill:none;stroke:#000000;stroke-dasharray:14.8,6.4;stroke-dashoffset:0;stroke-opacity:0.5;stroke-width:4;"/>
   </g>
   <g id="patch_12">
    <path d="M 86.4 436.32 
L 86.4 319.68 
" style="fill:none;stroke:#f0f0f0;stroke-linecap:square;stroke-linejoin:miter;stroke-width:3;"/>
   </g>
   <g id="patch_13">
    <path d="M 1026 436.32 
L 1026 319.68 
" style="fill:none;stroke:#f0f0f0;stroke-linecap:square;stroke-linejoin:miter;stroke-width:3;"/>
   </g>
   <g id="patch_14">
    <path d="M 86.4 436.32 
L 1026 436.32 
" style="fill:none;stroke:#f0f0f0;stroke-linecap:square;stroke-linejoin:miter;stroke-width:3;"/>
   </g>
   <g id="patch_15">
    <path d="M 86.4 319.68 
L 1026 319.68 
" style="fill:none;stroke:#f0f0f0;stroke-linecap:square;stroke-linejoin:miter;stroke-width:3;"/>
   </g>
   <g id="text_24">
    <!-- $p_B$: Mean Win % No KD -->
    <defs>
     <path d="M 9.8125 72.90625 
L 23.09375 72.90625 
L 55.421875 11.921875 
L 55.421875 72.90625 
L 64.984375 72.90625 
L 64.984375 0 
L 51.703125 0 
L 19.390625 60.984375 
L 19.390625 0 
L 9.8125 0 
z
" id="DejaVuSans-78"/>
    </defs>
    <g transform="translate(440.9856 313.68)scale(0.2016 -0.2016)">
     <use transform="translate(0 0.015625)" xlink:href="#DejaVuSans-Oblique-112"/>
     <use transform="translate(63.476562 -16.390625)scale(0.7)" xlink:href="#DejaVuSans-Oblique-66"/>
     <use transform="translate(114.233398 0.015625)" xlink:href="#DejaVuSans-58"/>
     <use transform="translate(147.924805 0.015625)" xlink:href="#DejaVuSans-32"/>
     <use transform="translate(179.711914 0.015625)" xlink:href="#DejaVuSans-77"/>
     <use transform="translate(265.991211 0.015625)" xlink:href="#DejaVuSans-101"/>
     <use transform="translate(327.514648 0.015625)" xlink:href="#DejaVuSans-97"/>
     <use transform="translate(388.793945 0.015625)" xlink:href="#DejaVuSans-110"/>
     <use transform="translate(452.172852 0.015625)" xlink:href="#DejaVuSans-32"/>
     <use transform="translate(483.959961 0.015625)" xlink:href="#DejaVuSans-87"/>
     <use transform="translate(582.836914 0.015625)" xlink:href="#DejaVuSans-105"/>
     <use transform="translate(610.620117 0.015625)" xlink:href="#DejaVuSans-110"/>
     <use transform="translate(673.999023 0.015625)" xlink:href="#DejaVuSans-32"/>
     <use transform="translate(705.786133 0.015625)" xlink:href="#DejaVuSans-37"/>
     <use transform="translate(800.805664 0.015625)" xlink:href="#DejaVuSans-32"/>
     <use transform="translate(832.592773 0.015625)" xlink:href="#DejaVuSans-78"/>
     <use transform="translate(907.397461 0.015625)" xlink:href="#DejaVuSans-111"/>
     <use transform="translate(968.579102 0.015625)" xlink:href="#DejaVuSans-32"/>
     <use transform="translate(1000.366211 0.015625)" xlink:href="#DejaVuSans-75"/>
     <use transform="translate(1065.942383 0.015625)" xlink:href="#DejaVuSans-68"/>
    </g>
   </g>
   <g id="legend_2">
    <g id="patch_16">
     <path d="M 839.016 431.79375 
L 1014.24 431.79375 
Q 1017.6 431.79375 1017.6 428.43375 
L 1017.6 331.44 
Q 1017.6 328.08 1014.24 328.08 
L 839.016 328.08 
Q 835.656 328.08 835.656 331.44 
L 835.656 428.43375 
Q 835.656 431.79375 839.016 431.79375 
z
" style="fill:#f0f0f0;opacity:0.8;stroke:#cccccc;stroke-linejoin:miter;stroke-width:0.5;"/>
    </g>
    <g id="patch_17">
     <path d="M 842.376 347.568 
L 875.976 347.568 
L 875.976 335.808 
L 842.376 335.808 
z
" style="fill:#fdb927;opacity:0.85;"/>
    </g>
    <g id="text_25">
     <!-- posterior of $p_B$ -->
     <g transform="translate(889.416 347.568)scale(0.168 -0.168)">
      <use transform="translate(0 0.015625)" xlink:href="#DejaVuSans-112"/>
      <use transform="translate(63.476562 0.015625)" xlink:href="#DejaVuSans-111"/>
      <use transform="translate(124.658203 0.015625)" xlink:href="#DejaVuSans-115"/>
      <use transform="translate(176.757812 0.015625)" xlink:href="#DejaVuSans-116"/>
      <use transform="translate(215.966797 0.015625)" xlink:href="#DejaVuSans-101"/>
      <use transform="translate(277.490234 0.015625)" xlink:href="#DejaVuSans-114"/>
      <use transform="translate(318.603516 0.015625)" xlink:href="#DejaVuSans-105"/>
      <use transform="translate(346.386719 0.015625)" xlink:href="#DejaVuSans-111"/>
      <use transform="translate(407.568359 0.015625)" xlink:href="#DejaVuSans-114"/>
      <use transform="translate(448.681641 0.015625)" xlink:href="#DejaVuSans-32"/>
      <use transform="translate(480.46875 0.015625)" xlink:href="#DejaVuSans-111"/>
      <use transform="translate(541.650391 0.015625)" xlink:href="#DejaVuSans-102"/>
      <use transform="translate(576.855469 0.015625)" xlink:href="#DejaVuSans-32"/>
      <use transform="translate(608.642578 0.015625)" xlink:href="#DejaVuSans-Oblique-112"/>
      <use transform="translate(672.119141 -16.390625)scale(0.7)" xlink:href="#DejaVuSans-Oblique-66"/>
     </g>
    </g>
    <g id="line2d_40">
     <path d="M 842.376 366.381375 
L 875.976 366.381375 
" style="fill:none;stroke:#ffffff;stroke-dasharray:14.8,6.4;stroke-dashoffset:0;stroke-opacity:0.5;stroke-width:4;"/>
    </g>
    <g id="text_26">
     <!-- mean -->
     <g transform="translate(889.416 372.261375)scale(0.168 -0.168)">
      <use xlink:href="#DejaVuSans-109"/>
      <use x="97.412109" xlink:href="#DejaVuSans-101"/>
      <use x="158.935547" xlink:href="#DejaVuSans-97"/>
      <use x="220.214844" xlink:href="#DejaVuSans-110"/>
     </g>
    </g>
    <g id="line2d_41">
     <path d="M 842.376 391.040625 
L 875.976 391.040625 
" style="fill:none;stroke:#000000;stroke-dasharray:14.8,6.4;stroke-dashoffset:0;stroke-opacity:0.5;stroke-width:4;"/>
    </g>
    <g id="text_27">
     <!-- 2.5% -->
     <g transform="translate(889.416 396.920625)scale(0.168 -0.168)">
      <use xlink:href="#DejaVuSans-50"/>
      <use x="63.623047" xlink:href="#DejaVuSans-46"/>
      <use x="95.410156" xlink:href="#DejaVuSans-53"/>
      <use x="159.033203" xlink:href="#DejaVuSans-37"/>
     </g>
    </g>
    <g id="line2d_42">
     <path d="M 842.376 415.699875 
L 875.976 415.699875 
" style="fill:none;stroke:#000000;stroke-dasharray:14.8,6.4;stroke-dashoffset:0;stroke-opacity:0.5;stroke-width:4;"/>
    </g>
    <g id="text_28">
     <!-- 97.5% -->
     <g transform="translate(889.416 421.579875)scale(0.168 -0.168)">
      <use xlink:href="#DejaVuSans-57"/>
      <use x="63.623047" xlink:href="#DejaVuSans-55"/>
      <use x="127.246094" xlink:href="#DejaVuSans-46"/>
      <use x="159.033203" xlink:href="#DejaVuSans-53"/>
      <use x="222.65625" xlink:href="#DejaVuSans-37"/>
     </g>
    </g>
   </g>
  </g>
  <g id="axes_3">
   <g id="patch_18">
    <path d="M 86.4 669.6 
L 1026 669.6 
L 1026 552.96 
L 86.4 552.96 
z
" style="fill:#f0f0f0;"/>
   </g>
   <g id="matplotlib.axis_5">
    <g id="xtick_13">
     <g id="line2d_43">
      <path clip-path="url(#p935e098ec4)" d="M 180.36 669.6 
L 180.36 552.96 
" style="fill:none;stroke:#cbcbcb;"/>
     </g>
     <g id="line2d_44"/>
     <g id="text_29">
      <!-- 0.4 -->
      <defs>
       <path d="M 10.59375 35.5 
L 73.1875 35.5 
L 73.1875 27.203125 
L 10.59375 27.203125 
z
" id="DejaVuSans-8722"/>
      </defs>
      <g transform="translate(159.962437 685.865375)scale(0.168 -0.168)">
       <use xlink:href="#DejaVuSans-8722"/>
       <use x="83.789062" xlink:href="#DejaVuSans-48"/>
       <use x="147.412109" xlink:href="#DejaVuSans-46"/>
       <use x="179.199219" xlink:href="#DejaVuSans-52"/>
      </g>
     </g>
    </g>
    <g id="xtick_14">
     <g id="line2d_45">
      <path clip-path="url(#p935e098ec4)" d="M 368.28 669.6 
L 368.28 552.96 
" style="fill:none;stroke:#cbcbcb;"/>
     </g>
     <g id="line2d_46"/>
     <g id="text_30">
      <!-- 0.2 -->
      <g transform="translate(347.882437 685.865375)scale(0.168 -0.168)">
       <use xlink:href="#DejaVuSans-8722"/>
       <use x="83.789062" xlink:href="#DejaVuSans-48"/>
       <use x="147.412109" xlink:href="#DejaVuSans-46"/>
       <use x="179.199219" xlink:href="#DejaVuSans-50"/>
      </g>
     </g>
    </g>
    <g id="xtick_15">
     <g id="line2d_47">
      <path clip-path="url(#p935e098ec4)" d="M 556.2 669.6 
L 556.2 552.96 
" style="fill:none;stroke:#cbcbcb;"/>
     </g>
     <g id="line2d_48"/>
     <g id="text_31">
      <!-- 0.0 -->
      <g transform="translate(542.841375 685.865375)scale(0.168 -0.168)">
       <use xlink:href="#DejaVuSans-48"/>
       <use x="63.623047" xlink:href="#DejaVuSans-46"/>
       <use x="95.410156" xlink:href="#DejaVuSans-48"/>
      </g>
     </g>
    </g>
    <g id="xtick_16">
     <g id="line2d_49">
      <path clip-path="url(#p935e098ec4)" d="M 744.12 669.6 
L 744.12 552.96 
" style="fill:none;stroke:#cbcbcb;"/>
     </g>
     <g id="line2d_50"/>
     <g id="text_32">
      <!-- 0.2 -->
      <g transform="translate(730.761375 685.865375)scale(0.168 -0.168)">
       <use xlink:href="#DejaVuSans-48"/>
       <use x="63.623047" xlink:href="#DejaVuSans-46"/>
       <use x="95.410156" xlink:href="#DejaVuSans-50"/>
      </g>
     </g>
    </g>
    <g id="xtick_17">
     <g id="line2d_51">
      <path clip-path="url(#p935e098ec4)" d="M 932.04 669.6 
L 932.04 552.96 
" style="fill:none;stroke:#cbcbcb;"/>
     </g>
     <g id="line2d_52"/>
     <g id="text_33">
      <!-- 0.4 -->
      <g transform="translate(918.681375 685.865375)scale(0.168 -0.168)">
       <use xlink:href="#DejaVuSans-48"/>
       <use x="63.623047" xlink:href="#DejaVuSans-46"/>
       <use x="95.410156" xlink:href="#DejaVuSans-52"/>
      </g>
     </g>
    </g>
   </g>
   <g id="matplotlib.axis_6">
    <g id="ytick_7">
     <g id="line2d_53">
      <path clip-path="url(#p935e098ec4)" d="M 86.4 669.6 
L 1026 669.6 
" style="fill:none;stroke:#cbcbcb;"/>
     </g>
     <g id="line2d_54"/>
     <g id="text_34">
      <!-- 0 -->
      <g transform="translate(72.211 675.982687)scale(0.168 -0.168)">
       <use xlink:href="#DejaVuSans-48"/>
      </g>
     </g>
    </g>
    <g id="ytick_8">
     <g id="line2d_55">
      <path clip-path="url(#p935e098ec4)" d="M 86.4 626.950447 
L 1026 626.950447 
" style="fill:none;stroke:#cbcbcb;"/>
     </g>
     <g id="line2d_56"/>
     <g id="text_35">
      <!-- 2 -->
      <g transform="translate(72.211 633.333134)scale(0.168 -0.168)">
       <use xlink:href="#DejaVuSans-50"/>
      </g>
     </g>
    </g>
    <g id="ytick_9">
     <g id="line2d_57">
      <path clip-path="url(#p935e098ec4)" d="M 86.4 584.300893 
L 1026 584.300893 
" style="fill:none;stroke:#cbcbcb;"/>
     </g>
     <g id="line2d_58"/>
     <g id="text_36">
      <!-- 4 -->
      <g transform="translate(72.211 590.683581)scale(0.168 -0.168)">
       <use xlink:href="#DejaVuSans-52"/>
      </g>
     </g>
    </g>
   </g>
   <g id="patch_19">
    <path clip-path="url(#p935e098ec4)" d="M 339.984495 669.6 
L 339.984495 669.372764 
L 356.227474 669.372764 
L 356.227474 668.820907 
L 372.470454 668.820907 
L 372.470454 668.074276 
L 388.713433 668.074276 
L 388.713433 665.2176 
L 404.956413 665.2176 
L 404.956413 660.575503 
L 421.199392 660.575503 
L 421.199392 653.498739 
L 437.442372 653.498739 
L 437.442372 643.987309 
L 453.685351 643.987309 
L 453.685351 628.730066 
L 469.928331 628.730066 
L 469.928331 614.349303 
L 486.17131 614.349303 
L 486.17131 599.189446 
L 502.41429 599.189446 
L 502.41429 581.562461 
L 518.65727 581.562461 
L 518.65727 569.583902 
L 534.900249 569.583902 
L 534.900249 561.857894 
L 551.143229 561.857894 
L 551.143229 559.845237 
L 567.386208 559.845237 
L 567.386208 558.514286 
L 583.629188 558.514286 
L 583.629188 570.200685 
L 599.872167 570.200685 
L 599.872167 581.887084 
L 616.115147 581.887084 
L 616.115147 592.145145 
L 632.358126 592.145145 
L 632.358126 605.811739 
L 648.601106 605.811739 
L 648.601106 620.809284 
L 664.844086 620.809284 
L 664.844086 631.976288 
L 681.087065 631.976288 
L 681.087065 643.208216 
L 697.330045 643.208216 
L 697.330045 649.473424 
L 713.573024 649.473424 
L 713.573024 656.680037 
L 729.816004 656.680037 
L 729.816004 661.127361 
L 746.058983 661.127361 
L 746.058983 664.763129 
L 762.301963 664.763129 
L 762.301963 666.938098 
L 778.544942 666.938098 
L 778.544942 668.009351 
L 794.787922 668.009351 
L 794.787922 668.853369 
L 811.030901 668.853369 
L 811.030901 669.372764 
L 827.273881 669.372764 
L 827.273881 669.6 
L 811.030901 669.6 
L 811.030901 669.6 
L 794.787922 669.6 
L 794.787922 669.6 
L 778.544942 669.6 
L 778.544942 669.6 
L 762.301963 669.6 
L 762.301963 669.6 
L 746.058983 669.6 
L 746.058983 669.6 
L 729.816004 669.6 
L 729.816004 669.6 
L 713.573024 669.6 
L 713.573024 669.6 
L 697.330045 669.6 
L 697.330045 669.6 
L 681.087065 669.6 
L 681.087065 669.6 
L 664.844086 669.6 
L 664.844086 669.6 
L 648.601106 669.6 
L 648.601106 669.6 
L 632.358126 669.6 
L 632.358126 669.6 
L 616.115147 669.6 
L 616.115147 669.6 
L 599.872167 669.6 
L 599.872167 669.6 
L 583.629188 669.6 
L 583.629188 669.6 
L 567.386208 669.6 
L 567.386208 669.6 
L 551.143229 669.6 
L 551.143229 669.6 
L 534.900249 669.6 
L 534.900249 669.6 
L 518.65727 669.6 
L 518.65727 669.6 
L 502.41429 669.6 
L 502.41429 669.6 
L 486.17131 669.6 
L 486.17131 669.6 
L 469.928331 669.6 
L 469.928331 669.6 
L 453.685351 669.6 
L 453.685351 669.6 
L 437.442372 669.6 
L 437.442372 669.6 
L 421.199392 669.6 
L 421.199392 669.6 
L 404.956413 669.6 
L 404.956413 669.6 
L 388.713433 669.6 
L 388.713433 669.6 
L 372.470454 669.6 
L 372.470454 669.6 
L 356.227474 669.6 
L 356.227474 669.6 
z
" style="fill:#be3a34;opacity:0.85;"/>
   </g>
   <g id="LineCollection_7">
    <path clip-path="url(#p935e098ec4)" d="M 565.596 669.6 
L 565.596 562.976116 
" style="fill:none;stroke:#ffffff;stroke-dasharray:14.8,6.4;stroke-dashoffset:0;stroke-opacity:0.5;stroke-width:4;"/>
   </g>
   <g id="LineCollection_8">
    <path clip-path="url(#p935e098ec4)" d="M 424.656 669.6 
L 424.656 648.275223 
" style="fill:none;stroke:#000000;stroke-dasharray:14.8,6.4;stroke-dashoffset:0;stroke-opacity:0.5;stroke-width:4;"/>
   </g>
   <g id="LineCollection_9">
    <path clip-path="url(#p935e098ec4)" d="M 706.536 669.6 
L 706.536 648.275223 
" style="fill:none;stroke:#000000;stroke-dasharray:14.8,6.4;stroke-dashoffset:0;stroke-opacity:0.5;stroke-width:4;"/>
   </g>
   <g id="patch_20">
    <path d="M 86.4 669.6 
L 86.4 552.96 
" style="fill:none;stroke:#f0f0f0;stroke-linecap:square;stroke-linejoin:miter;stroke-width:3;"/>
   </g>
   <g id="patch_21">
    <path d="M 1026 669.6 
L 1026 552.96 
" style="fill:none;stroke:#f0f0f0;stroke-linecap:square;stroke-linejoin:miter;stroke-width:3;"/>
   </g>
   <g id="patch_22">
    <path d="M 86.4 669.6 
L 1026 669.6 
" style="fill:none;stroke:#f0f0f0;stroke-linecap:square;stroke-linejoin:miter;stroke-width:3;"/>
   </g>
   <g id="patch_23">
    <path d="M 86.4 552.96 
L 1026 552.96 
" style="fill:none;stroke:#f0f0f0;stroke-linecap:square;stroke-linejoin:miter;stroke-width:3;"/>
   </g>
   <g id="text_37">
    <!-- $delta$ = $p_A - p_B$ -->
    <defs>
     <path d="M 41.796875 8.203125 
Q 38.1875 3.46875 33.25 1.015625 
Q 28.328125 -1.421875 22.3125 -1.421875 
Q 14.109375 -1.421875 9.34375 4.171875 
Q 4.59375 9.765625 4.59375 19.484375 
Q 4.59375 27.59375 7.46875 34.9375 
Q 10.359375 42.28125 15.828125 48.09375 
Q 19.4375 51.953125 23.96875 53.96875 
Q 28.515625 56 33.5 56 
Q 38.765625 56 42.796875 53.453125 
Q 46.828125 50.921875 49.03125 46.1875 
L 54.890625 75.984375 
L 63.921875 75.984375 
L 49.125 0 
L 40.09375 0 
z
M 13.921875 21.09375 
Q 13.921875 14.015625 17.109375 10.0625 
Q 20.3125 6.109375 25.984375 6.109375 
Q 30.171875 6.109375 33.765625 8.125 
Q 37.359375 10.15625 40.09375 14.109375 
Q 42.96875 18.21875 44.625 23.578125 
Q 46.296875 28.953125 46.296875 34.1875 
Q 46.296875 40.96875 43.09375 44.765625 
Q 39.890625 48.578125 34.28125 48.578125 
Q 30.03125 48.578125 26.359375 46.578125 
Q 22.703125 44.578125 20.125 40.828125 
Q 17.28125 36.765625 15.59375 31.390625 
Q 13.921875 26.03125 13.921875 21.09375 
z
" id="DejaVuSans-Oblique-100"/>
     <path d="M 48.09375 32.234375 
Q 48.25 33.015625 48.3125 33.84375 
Q 48.390625 34.671875 48.390625 35.5 
Q 48.390625 41.453125 44.890625 44.921875 
Q 41.40625 48.390625 35.40625 48.390625 
Q 28.71875 48.390625 23.578125 44.15625 
Q 18.453125 39.9375 15.828125 32.171875 
z
M 55.90625 25.203125 
L 14.109375 25.203125 
Q 13.8125 23.34375 13.71875 22.265625 
Q 13.625 21.1875 13.625 20.40625 
Q 13.625 13.625 17.796875 9.90625 
Q 21.96875 6.203125 29.59375 6.203125 
Q 35.453125 6.203125 40.671875 7.515625 
Q 45.90625 8.84375 50.390625 11.375 
L 48.6875 2.484375 
Q 43.84375 0.53125 38.6875 -0.4375 
Q 33.546875 -1.421875 28.21875 -1.421875 
Q 16.84375 -1.421875 10.71875 4.015625 
Q 4.59375 9.46875 4.59375 19.484375 
Q 4.59375 28.03125 7.640625 35.375 
Q 10.6875 42.71875 16.609375 48.484375 
Q 20.40625 52.09375 25.65625 54.046875 
Q 30.90625 56 36.8125 56 
Q 46.09375 56 51.578125 50.4375 
Q 57.078125 44.875 57.078125 35.5 
Q 57.078125 33.25 56.78125 30.6875 
Q 56.5 28.125 55.90625 25.203125 
z
" id="DejaVuSans-Oblique-101"/>
     <path d="M 18.3125 75.984375 
L 27.296875 75.984375 
L 12.5 0 
L 3.515625 0 
z
" id="DejaVuSans-Oblique-108"/>
     <path d="M 42.28125 54.6875 
L 40.921875 47.703125 
L 23 47.703125 
L 17.1875 18.015625 
Q 16.890625 16.359375 16.75 15.234375 
Q 16.609375 14.109375 16.609375 13.484375 
Q 16.609375 10.359375 18.484375 8.9375 
Q 20.359375 7.515625 24.515625 7.515625 
L 33.59375 7.515625 
L 32.078125 0 
L 23.484375 0 
Q 15.484375 0 11.546875 3.125 
Q 7.625 6.25 7.625 12.59375 
Q 7.625 13.71875 7.765625 15.0625 
Q 7.90625 16.40625 8.203125 18.015625 
L 14.015625 47.703125 
L 6.390625 47.703125 
L 7.8125 54.6875 
L 15.28125 54.6875 
L 18.3125 70.21875 
L 27.296875 70.21875 
L 24.3125 54.6875 
z
" id="DejaVuSans-Oblique-116"/>
     <path d="M 53.71875 31.203125 
L 47.609375 0 
L 38.625 0 
L 40.28125 8.296875 
Q 36.328125 3.421875 31.265625 1 
Q 26.21875 -1.421875 20.015625 -1.421875 
Q 13.03125 -1.421875 8.5625 2.84375 
Q 4.109375 7.125 4.109375 13.8125 
Q 4.109375 23.390625 11.75 28.953125 
Q 19.390625 34.515625 32.8125 34.515625 
L 45.3125 34.515625 
L 45.796875 36.921875 
Q 45.90625 37.3125 45.953125 37.765625 
Q 46 38.234375 46 39.203125 
Q 46 43.5625 42.453125 45.96875 
Q 38.921875 48.390625 32.515625 48.390625 
Q 28.125 48.390625 23.5 47.265625 
Q 18.890625 46.140625 14.015625 43.890625 
L 15.578125 52.203125 
Q 20.65625 54.109375 25.515625 55.046875 
Q 30.375 56 34.90625 56 
Q 44.578125 56 49.625 51.796875 
Q 54.6875 47.609375 54.6875 39.59375 
Q 54.6875 37.984375 54.4375 35.8125 
Q 54.203125 33.640625 53.71875 31.203125 
z
M 44 27.484375 
L 35.015625 27.484375 
Q 23.96875 27.484375 18.671875 24.53125 
Q 13.375 21.578125 13.375 15.375 
Q 13.375 11.078125 16.078125 8.640625 
Q 18.796875 6.203125 23.578125 6.203125 
Q 30.90625 6.203125 36.375 11.453125 
Q 41.84375 16.703125 43.609375 25.484375 
z
" id="DejaVuSans-Oblique-97"/>
     <path d="M 10.59375 45.40625 
L 73.1875 45.40625 
L 73.1875 37.203125 
L 10.59375 37.203125 
z
M 10.59375 25.484375 
L 73.1875 25.484375 
L 73.1875 17.1875 
L 10.59375 17.1875 
z
" id="DejaVuSans-61"/>
    </defs>
    <g transform="translate(480.3984 546.96)scale(0.2016 -0.2016)">
     <use transform="translate(0 0.015625)" xlink:href="#DejaVuSans-Oblique-100"/>
     <use transform="translate(63.476562 0.015625)" xlink:href="#DejaVuSans-Oblique-101"/>
     <use transform="translate(125 0.015625)" xlink:href="#DejaVuSans-Oblique-108"/>
     <use transform="translate(152.783203 0.015625)" xlink:href="#DejaVuSans-Oblique-116"/>
     <use transform="translate(191.992188 0.015625)" xlink:href="#DejaVuSans-Oblique-97"/>
     <use transform="translate(253.271484 0.015625)" xlink:href="#DejaVuSans-32"/>
     <use transform="translate(285.058594 0.015625)" xlink:href="#DejaVuSans-61"/>
     <use transform="translate(368.847656 0.015625)" xlink:href="#DejaVuSans-32"/>
     <use transform="translate(400.634766 0.015625)" xlink:href="#DejaVuSans-Oblique-112"/>
     <use transform="translate(464.111328 -16.390625)scale(0.7)" xlink:href="#DejaVuSans-Oblique-65"/>
     <use transform="translate(534.213867 0.015625)" xlink:href="#DejaVuSans-8722"/>
     <use transform="translate(637.485352 0.015625)" xlink:href="#DejaVuSans-Oblique-112"/>
     <use transform="translate(700.961914 -16.390625)scale(0.7)" xlink:href="#DejaVuSans-Oblique-66"/>
    </g>
   </g>
   <g id="legend_3">
    <g id="patch_24">
     <path d="M 815.677125 665.037 
L 1014.24 665.037 
Q 1017.6 665.037 1017.6 661.677 
L 1017.6 564.72 
Q 1017.6 561.36 1014.24 561.36 
L 815.677125 561.36 
Q 812.317125 561.36 812.317125 564.72 
L 812.317125 661.677 
Q 812.317125 665.037 815.677125 665.037 
z
" style="fill:#f0f0f0;opacity:0.8;stroke:#cccccc;stroke-linejoin:miter;stroke-width:0.5;"/>
    </g>
    <g id="patch_25">
     <path d="M 819.037125 580.845375 
L 852.637125 580.845375 
L 852.637125 569.085375 
L 819.037125 569.085375 
z
" style="fill:#be3a34;opacity:0.85;"/>
    </g>
    <g id="text_38">
     <!-- posterior of delta -->
     <g transform="translate(866.077125 580.845375)scale(0.168 -0.168)">
      <use xlink:href="#DejaVuSans-112"/>
      <use x="63.476562" xlink:href="#DejaVuSans-111"/>
      <use x="124.658203" xlink:href="#DejaVuSans-115"/>
      <use x="176.757812" xlink:href="#DejaVuSans-116"/>
      <use x="215.966797" xlink:href="#DejaVuSans-101"/>
      <use x="277.490234" xlink:href="#DejaVuSans-114"/>
      <use x="318.603516" xlink:href="#DejaVuSans-105"/>
      <use x="346.386719" xlink:href="#DejaVuSans-111"/>
      <use x="407.568359" xlink:href="#DejaVuSans-114"/>
      <use x="448.681641" xlink:href="#DejaVuSans-32"/>
      <use x="480.46875" xlink:href="#DejaVuSans-111"/>
      <use x="541.650391" xlink:href="#DejaVuSans-102"/>
      <use x="576.855469" xlink:href="#DejaVuSans-32"/>
      <use x="608.642578" xlink:href="#DejaVuSans-100"/>
      <use x="672.119141" xlink:href="#DejaVuSans-101"/>
      <use x="733.642578" xlink:href="#DejaVuSans-108"/>
      <use x="761.425781" xlink:href="#DejaVuSans-116"/>
      <use x="800.634766" xlink:href="#DejaVuSans-97"/>
     </g>
    </g>
    <g id="line2d_59">
     <path d="M 819.037125 599.624625 
L 852.637125 599.624625 
" style="fill:none;stroke:#ffffff;stroke-dasharray:14.8,6.4;stroke-dashoffset:0;stroke-opacity:0.5;stroke-width:4;"/>
    </g>
    <g id="text_39">
     <!-- mean delta -->
     <g transform="translate(866.077125 605.504625)scale(0.168 -0.168)">
      <use xlink:href="#DejaVuSans-109"/>
      <use x="97.412109" xlink:href="#DejaVuSans-101"/>
      <use x="158.935547" xlink:href="#DejaVuSans-97"/>
      <use x="220.214844" xlink:href="#DejaVuSans-110"/>
      <use x="283.59375" xlink:href="#DejaVuSans-32"/>
      <use x="315.380859" xlink:href="#DejaVuSans-100"/>
      <use x="378.857422" xlink:href="#DejaVuSans-101"/>
      <use x="440.380859" xlink:href="#DejaVuSans-108"/>
      <use x="468.164062" xlink:href="#DejaVuSans-116"/>
      <use x="507.373047" xlink:href="#DejaVuSans-97"/>
     </g>
    </g>
    <g id="line2d_60">
     <path d="M 819.037125 624.283875 
L 852.637125 624.283875 
" style="fill:none;stroke:#000000;stroke-dasharray:14.8,6.4;stroke-dashoffset:0;stroke-opacity:0.5;stroke-width:4;"/>
    </g>
    <g id="text_40">
     <!-- 2.5% -->
     <g transform="translate(866.077125 630.163875)scale(0.168 -0.168)">
      <use xlink:href="#DejaVuSans-50"/>
      <use x="63.623047" xlink:href="#DejaVuSans-46"/>
      <use x="95.410156" xlink:href="#DejaVuSans-53"/>
      <use x="159.033203" xlink:href="#DejaVuSans-37"/>
     </g>
    </g>
    <g id="line2d_61">
     <path d="M 819.037125 648.943125 
L 852.637125 648.943125 
" style="fill:none;stroke:#000000;stroke-dasharray:14.8,6.4;stroke-dashoffset:0;stroke-opacity:0.5;stroke-width:4;"/>
    </g>
    <g id="text_41">
     <!-- 97.5% -->
     <g transform="translate(866.077125 654.823125)scale(0.168 -0.168)">
      <use xlink:href="#DejaVuSans-57"/>
      <use x="63.623047" xlink:href="#DejaVuSans-55"/>
      <use x="127.246094" xlink:href="#DejaVuSans-46"/>
      <use x="159.033203" xlink:href="#DejaVuSans-53"/>
      <use x="222.65625" xlink:href="#DejaVuSans-37"/>
     </g>
    </g>
   </g>
  </g>
 </g>
 <defs>
  <clipPath id="p1ba3915495">
   <rect height="116.64" width="939.6" x="86.4" y="86.4"/>
  </clipPath>
  <clipPath id="pa0cdf44310">
   <rect height="116.64" width="939.6" x="86.4" y="319.68"/>
  </clipPath>
  <clipPath id="p935e098ec4">
   <rect height="116.64" width="939.6" x="86.4" y="552.96"/>
  </clipPath>
 </defs>
</svg>
